<svg width="24" height="16" viewBox="0 0 24 16" fill="none" xmlns="http://www.w3.org/2000/svg">
<g clip-path="url(#clip0_1383_23995)">
<path d="M0 0.0112305H23.9532V16.0112H0V0.0112305Z" fill="white"/>
<path d="M0 0.0112305H23.9532V4.2779H0V0.0112305ZM0 11.7446H23.9532V16.0112H0V11.7446Z" fill="#D03433"/>
<path d="M0 4.26855H23.9532V11.7539H0V4.26855Z" fill="#FBCA46"/>
<path d="M8.30469 7.47803H9.36927V8.01136H8.30469V7.47803Z" fill="white"/>
<path d="M7.66414 9.07767C7.66414 9.39767 7.98352 9.611 8.3029 9.611C8.62227 9.611 8.94165 9.39767 8.94165 9.07767L9.04811 7.47767H7.55768L7.66414 9.07767ZM7.02539 7.47767C7.02539 7.15767 7.23831 6.94434 7.45123 6.94434H9.04811C9.36748 6.94434 9.5804 7.15767 9.5804 7.371V7.47767L9.47394 9.07767C9.36748 9.71767 8.94165 10.1443 8.3029 10.1443C7.66414 10.1443 7.23831 9.71767 7.13185 9.07767L7.02539 7.47767Z" fill="#A41517"/>
<path d="M7.23946 8.01139H9.36863V8.54473H8.83634L8.30405 9.61139L7.77175 8.54473H7.23946V8.01139ZM5.64258 6.41139H6.70717V10.1447H5.64258V6.41139ZM9.90093 6.41139H10.9655V10.1447H9.90093V6.41139ZM7.23946 5.87806C7.23946 5.55806 7.45238 5.34473 7.77175 5.34473H8.83634C9.15572 5.34473 9.36863 5.55806 9.36863 5.87806V6.09139C9.36863 6.30473 9.26218 6.41139 9.04926 6.41139H7.45238C7.34592 6.41139 7.23946 6.30473 7.23946 6.19806V5.87806Z" fill="#A41517"/>
</g>
<defs>
<clipPath id="clip0_1383_23995">
<rect width="24" height="16" fill="white"/>
</clipPath>
</defs>
</svg>
