<svg width="549" height="420" viewBox="0 0 549 420" fill="none" xmlns="http://www.w3.org/2000/svg">
<g clip-path="url(#clip0_942_6257)">
<rect width="549" height="420" rx="16" fill="#E1D2FF"/>
<g opacity="0.8">
<g clip-path="url(#clip1_942_6257)">
<mask id="path-3-inside-1_942_6257" fill="white">
<path d="M61.4141 76.2485C61.4141 70.5884 66.0025 66 71.6625 66H891.541C897.201 66 901.789 70.5884 901.789 76.2485V360.851C901.789 366.512 897.201 371.1 891.541 371.1H71.6625C66.0025 371.1 61.4141 366.512 61.4141 360.851V76.2485Z"/>
</mask>
<path d="M61.4141 76.2485C61.4141 70.5884 66.0025 66 71.6625 66H891.541C897.201 66 901.789 70.5884 901.789 76.2485V360.851C901.789 366.512 897.201 371.1 891.541 371.1H71.6625C66.0025 371.1 61.4141 366.512 61.4141 360.851V76.2485Z" fill="white"/>
<path d="M61.4141 66H901.789H61.4141ZM901.789 360.851C901.789 366.865 896.914 371.74 890.9 371.74H72.3031C66.2892 371.74 61.4141 366.865 61.4141 360.851C61.4141 366.158 66.0025 370.459 71.6625 370.459H891.541C897.201 370.459 901.789 366.158 901.789 360.851ZM61.4141 371.1V66V371.1ZM901.789 66V371.1V66Z" fill="#EDEBF0" mask="url(#path-3-inside-1_942_6257)"/>
<path d="M83.0246 94.3727L82.4251 92.747H79.0815L78.482 94.3727H76.9255L79.877 86.5326H81.7102L84.6618 94.3727H83.0246ZM80.5227 88.8616L79.5311 91.5479H81.9754L80.9839 88.8616L80.7533 88.0545L80.5227 88.8616ZM89.1544 91.7785V88.1928H90.6302V94.3727H89.1544V93.5426C88.7509 94.2228 88.1168 94.5456 87.3558 94.5456C86.1337 94.5456 85.3151 93.8077 85.3151 92.3204V88.1928H86.7909V92.0207C86.7909 92.8623 87.1368 93.3235 87.8631 93.3235C88.6587 93.3235 89.1544 92.6087 89.1544 91.7785ZM94.3093 94.5456C92.6952 94.5456 91.7036 93.312 91.7036 91.2943C91.7036 89.1959 92.7182 88.0199 94.3093 88.0199C94.9896 88.0199 95.5545 88.3081 95.935 88.8616V86.0714H97.4108V94.3727H95.935V93.6694C95.543 94.2343 94.9896 94.5456 94.3093 94.5456ZM94.5745 93.3235C95.4623 93.3235 95.935 92.6087 95.935 91.2943C95.935 89.9799 95.4392 89.242 94.5745 89.242C93.6982 89.242 93.2255 89.9684 93.2255 91.2943C93.2255 92.5971 93.7098 93.3235 94.5745 93.3235ZM98.7587 87.5011V86.0714H100.235V87.5011H98.7587ZM98.7587 94.3727V88.1928H100.235V94.3727H98.7587ZM107.223 92.355C106.888 93.7847 105.782 94.5456 104.306 94.5456C102.438 94.5456 101.297 93.312 101.297 91.2943C101.297 89.1959 102.45 88.0199 104.248 88.0199C106.058 88.0199 107.177 89.242 107.177 91.2366V91.5825H102.818C102.888 92.7124 103.406 93.335 104.306 93.335C104.998 93.335 105.47 93.0122 105.666 92.355H107.223ZM104.248 89.2305C103.464 89.2305 102.991 89.7263 102.853 90.6602H105.632C105.493 89.7378 105.021 89.2305 104.248 89.2305ZM108.284 94.3727V88.1928H109.76V89.023C110.163 88.3543 110.809 88.0199 111.593 88.0199C112.827 88.0199 113.668 88.7578 113.668 90.2566V94.3727H112.193V90.5564C112.193 89.7147 111.835 89.242 111.086 89.242C110.267 89.242 109.76 89.9569 109.76 90.787V94.3727H108.284ZM120.378 90.3835H118.902C118.764 89.5764 118.28 89.242 117.657 89.242C116.746 89.242 116.262 89.9684 116.262 91.2943C116.262 92.5971 116.769 93.3235 117.703 93.3235C118.337 93.3235 118.787 92.9776 118.937 92.2743H120.424C120.148 93.8193 119.064 94.5456 117.669 94.5456C115.847 94.5456 114.74 93.3004 114.74 91.2943C114.74 89.1959 115.882 88.0199 117.657 88.0199C119.064 88.0199 120.171 88.8039 120.378 90.3835ZM127.084 92.355C126.75 93.7847 125.643 94.5456 124.167 94.5456C122.299 94.5456 121.158 93.312 121.158 91.2943C121.158 89.1959 122.311 88.0199 124.11 88.0199C125.92 88.0199 127.038 89.242 127.038 91.2366V91.5825H122.68C122.749 92.7124 123.268 93.335 124.167 93.335C124.859 93.335 125.332 93.0122 125.528 92.355H127.084ZM124.11 89.2305C123.326 89.2305 122.853 89.7263 122.714 90.6602H125.493C125.355 89.7378 124.882 89.2305 124.11 89.2305Z" fill="#262626"/>
<path d="M77.4738 121.902V114.933H78.8573V120.785H82.0856V121.902H77.4738ZM85.1391 122.056C83.5096 122.056 82.5052 120.959 82.5052 119.166C82.5052 117.301 83.5403 116.255 85.1391 116.255C86.7583 116.255 87.7627 117.362 87.7627 119.166C87.7627 121.011 86.7276 122.056 85.1391 122.056ZM85.1391 120.97C85.9692 120.97 86.4099 120.334 86.4099 119.166C86.4099 117.998 85.9589 117.342 85.1391 117.342C84.2987 117.342 83.858 117.987 83.858 119.166C83.858 120.324 84.3089 120.97 85.1391 120.97ZM93.2667 118.356H91.9549C91.8319 117.639 91.4014 117.342 90.848 117.342C90.0384 117.342 89.608 117.987 89.608 119.166C89.608 120.324 90.0589 120.97 90.889 120.97C91.4527 120.97 91.8524 120.662 91.9856 120.037H93.3077C93.0617 121.41 92.0983 122.056 90.8583 122.056C89.239 122.056 88.2552 120.949 88.2552 119.166C88.2552 117.301 89.2698 116.255 90.848 116.255C92.0983 116.255 93.0822 116.952 93.2667 118.356ZM95.2819 118.213H93.9599C94.1341 116.993 95.0257 116.255 96.4093 116.255C97.9363 116.255 98.7152 117.157 98.7152 118.428V120.56C98.7152 121.236 98.7767 121.615 98.8791 121.902H97.5161C97.4444 121.718 97.4136 121.451 97.4034 121.154C96.9524 121.789 96.276 122.056 95.6201 122.056C94.544 122.056 93.7754 121.523 93.7754 120.467C93.7754 119.719 94.1956 119.156 95.036 118.879C95.7636 118.633 96.4708 118.571 97.3931 118.561V118.428C97.3931 117.721 97.0549 117.342 96.3273 117.342C95.7021 117.342 95.3639 117.69 95.2819 118.213ZM95.0975 120.396C95.0975 120.816 95.4254 121.082 95.9583 121.082C96.768 121.082 97.3931 120.426 97.3931 119.607V119.371C95.5279 119.402 95.0975 119.842 95.0975 120.396ZM99.9353 120.191V117.424H99.2282V116.409H99.9353V115.148H101.247V116.409H102.405V117.424H101.247V120.078C101.247 120.652 101.411 120.959 102.139 120.959H102.385V121.923C102.241 121.994 101.944 122.056 101.585 122.056C100.468 122.056 99.9353 121.421 99.9353 120.191ZM102.969 115.794V114.523H104.281V115.794H102.969ZM102.969 121.902V116.409H104.281V121.902H102.969ZM107.654 122.056C106.024 122.056 105.02 120.959 105.02 119.166C105.02 117.301 106.055 116.255 107.654 116.255C109.273 116.255 110.277 117.362 110.277 119.166C110.277 121.011 109.242 122.056 107.654 122.056ZM107.654 120.97C108.484 120.97 108.925 120.334 108.925 119.166C108.925 117.998 108.474 117.342 107.654 117.342C106.813 117.342 106.373 117.987 106.373 119.166C106.373 120.324 106.824 120.97 107.654 120.97ZM111.026 121.902V116.409H112.338V117.147C112.697 116.553 113.27 116.255 113.967 116.255C115.064 116.255 115.812 116.911 115.812 118.244V121.902H114.5V118.51C114.5 117.762 114.183 117.342 113.516 117.342C112.789 117.342 112.338 117.977 112.338 118.715V121.902H111.026Z" fill="#344054"/>
<rect x="77.1074" y="129.066" width="383.677" height="23.0458" rx="2.24185" fill="white"/>
<rect x="77.1074" y="129.066" width="383.677" height="23.0458" rx="2.24185" stroke="#D0D5DD" stroke-width="0.64053"/>
<path d="M85.9894 138.321C85.9894 140.289 90.263 138.762 90.263 141.621C90.263 142.963 89.1767 143.712 87.6907 143.712C86.1944 143.712 85.1696 143.025 84.8621 141.621H85.846C86.0714 142.451 86.6966 142.902 87.7009 142.902C88.7463 142.902 89.2997 142.441 89.2997 141.744C89.2997 139.612 85.0261 141.201 85.0261 138.382C85.0261 137.378 85.8664 136.497 87.4037 136.497C88.7463 136.497 89.8224 137.142 90.0786 138.628H89.0845C88.8693 137.706 88.2748 137.306 87.3832 137.306C86.5019 137.306 85.9894 137.706 85.9894 138.321ZM96.0692 141.816C95.772 143.086 94.8599 143.712 93.6198 143.712C92.0416 143.712 91.0885 142.646 91.0885 140.873C91.0885 139.028 92.0416 138.013 93.5686 138.013C95.1059 138.013 96.0282 139.069 96.0282 140.801V141.027H92.0108C92.0621 142.246 92.636 142.933 93.6198 142.933C94.3885 142.933 94.9316 142.564 95.1264 141.816H96.0692ZM93.5686 138.792C92.6975 138.792 92.1748 139.336 92.0416 140.35H95.0854C94.9624 139.346 94.4192 138.792 93.5686 138.792ZM97.23 143.589V136.21H98.1319V143.589H97.23ZM104.266 141.816C103.969 143.086 103.057 143.712 101.817 143.712C100.238 143.712 99.2852 142.646 99.2852 140.873C99.2852 139.028 100.238 138.013 101.765 138.013C103.303 138.013 104.225 139.069 104.225 140.801V141.027H100.208C100.259 142.246 100.833 142.933 101.817 142.933C102.585 142.933 103.128 142.564 103.323 141.816H104.266ZM101.765 138.792C100.894 138.792 100.372 139.336 100.238 140.35H103.282C103.159 139.346 102.616 138.792 101.765 138.792ZM109.926 140.022H109.024C108.881 139.192 108.327 138.792 107.61 138.792C106.605 138.792 106.072 139.53 106.072 140.873C106.072 142.195 106.636 142.943 107.64 142.943C108.368 142.943 108.891 142.554 109.065 141.775H109.967C109.721 143.127 108.809 143.712 107.62 143.712C106.072 143.712 105.15 142.636 105.15 140.873C105.15 139.028 106.093 138.013 107.61 138.013C108.809 138.013 109.752 138.69 109.926 140.022ZM111.204 142.021V138.864H110.446V138.147H111.204V136.896H112.106V138.147H113.305V138.864H112.106V142.021C112.106 142.677 112.301 142.984 113.1 142.984H113.285V143.63C113.182 143.681 112.957 143.712 112.701 143.712C111.686 143.712 111.204 143.168 111.204 142.021ZM116.216 143.589V136.21H117.118V143.589H116.216ZM120.761 143.712C119.204 143.712 118.271 142.646 118.271 140.873C118.271 139.028 119.234 138.013 120.761 138.013C122.319 138.013 123.252 139.1 123.252 140.873C123.252 142.707 122.288 143.712 120.761 143.712ZM120.761 142.933C121.776 142.933 122.329 142.205 122.329 140.873C122.329 139.551 121.766 138.792 120.761 138.792C119.747 138.792 119.193 139.53 119.193 140.873C119.193 142.185 119.757 142.933 120.761 142.933ZM128.912 140.022H128.01C127.866 139.192 127.313 138.792 126.595 138.792C125.591 138.792 125.058 139.53 125.058 140.873C125.058 142.195 125.622 142.943 126.626 142.943C127.354 142.943 127.876 142.554 128.051 141.775H128.953C128.707 143.127 127.795 143.712 126.606 143.712C125.058 143.712 124.136 142.636 124.136 140.873C124.136 139.028 125.079 138.013 126.595 138.013C127.795 138.013 128.737 138.69 128.912 140.022ZM130.897 139.92H129.995C130.17 138.721 130.959 138.013 132.291 138.013C133.746 138.013 134.454 138.864 134.454 140.135V142.277C134.454 142.902 134.505 143.291 134.648 143.589H133.695C133.593 143.373 133.562 143.056 133.552 142.728C133.09 143.414 132.353 143.712 131.697 143.712C130.569 143.712 129.811 143.189 129.811 142.154C129.811 141.406 130.221 140.863 131.02 140.596C131.758 140.35 132.506 140.289 133.552 140.278V140.155C133.552 139.274 133.142 138.792 132.209 138.792C131.43 138.792 131.01 139.223 130.897 139.92ZM130.733 142.133C130.733 142.636 131.154 142.933 131.789 142.933C132.793 142.933 133.552 142.144 133.552 141.211V140.955C131.236 140.975 130.733 141.467 130.733 142.133ZM136.055 142.021V138.864H135.297V138.147H136.055V136.896H136.957V138.147H138.156V138.864H136.957V142.021C136.957 142.677 137.152 142.984 137.951 142.984H138.135V143.63C138.033 143.681 137.808 143.712 137.551 143.712C136.537 143.712 136.055 143.168 136.055 142.021ZM139.015 137.419V136.21H139.916V137.419H139.015ZM139.015 143.589V138.147H139.916V143.589H139.015ZM143.56 143.712C142.002 143.712 141.07 142.646 141.07 140.873C141.07 139.028 142.033 138.013 143.56 138.013C145.118 138.013 146.051 139.1 146.051 140.873C146.051 142.707 145.087 143.712 143.56 143.712ZM143.56 142.933C144.575 142.933 145.128 142.205 145.128 140.873C145.128 139.551 144.565 138.792 143.56 138.792C142.546 138.792 141.992 139.53 141.992 140.873C141.992 142.185 142.556 142.933 143.56 142.933ZM147.211 143.589V138.147H148.113V138.885C148.482 138.311 149.077 138.013 149.794 138.013C150.952 138.013 151.639 138.69 151.639 139.95V143.589H150.737V140.135C150.737 139.315 150.368 138.782 149.548 138.782C148.646 138.782 148.113 139.592 148.113 140.371V143.589H147.211Z" fill="#98A2B3"/>
<path d="M441.891 138.667L445.734 142.51L449.577 138.667" stroke="#262626" stroke-width="1.28106" stroke-linecap="round" stroke-linejoin="round"/>
<path d="M79.3082 174.961V169.13H77.0638V167.992H82.9362V169.13H80.6918V174.961H79.3082ZM83.9522 171.272H82.6301C82.8043 170.052 83.6959 169.315 85.0795 169.315C86.6065 169.315 87.3854 170.216 87.3854 171.487V173.619C87.3854 174.295 87.4469 174.674 87.5494 174.961H86.1863C86.1146 174.777 86.0838 174.51 86.0736 174.213C85.6227 174.849 84.9463 175.115 84.2904 175.115C83.2143 175.115 82.4456 174.582 82.4456 173.527C82.4456 172.778 82.8658 172.215 83.7062 171.938C84.4338 171.692 85.141 171.631 86.0633 171.62V171.487C86.0633 170.78 85.7251 170.401 84.9975 170.401C84.3723 170.401 84.0341 170.749 83.9522 171.272ZM83.7677 173.455C83.7677 173.875 84.0956 174.142 84.6286 174.142C85.4382 174.142 86.0633 173.486 86.0633 172.666V172.43C84.1981 172.461 83.7677 172.901 83.7677 173.455ZM88.4313 174.961V169.468H89.7431V170.268C90.1018 169.612 90.6552 169.315 91.2496 169.315C91.4751 169.315 91.6801 169.376 91.7826 169.468V170.606C91.6083 170.555 91.4136 170.534 91.1779 170.534C90.1838 170.534 89.7431 171.128 89.7431 172.041V174.961H88.4313ZM94.1681 174.982C92.7743 174.982 91.9134 173.906 91.9134 172.153C91.9134 170.329 92.7948 169.315 94.1681 169.315C94.824 169.315 95.3364 169.56 95.6746 170.022V169.468H96.9864V175.136C96.9864 176.622 95.9615 177.38 94.5985 177.38C93.2457 177.38 92.2618 176.755 92.0671 175.453H93.3892C93.4712 176.038 93.9426 176.345 94.578 176.345C95.2339 176.345 95.6746 176.027 95.6746 175.156V174.234C95.3159 174.726 94.8035 174.982 94.1681 174.982ZM94.4653 173.896C95.2544 173.896 95.6746 173.281 95.6746 172.153C95.6746 171.036 95.2339 170.401 94.4653 170.401C93.6864 170.401 93.2662 171.016 93.2662 172.153C93.2662 173.27 93.6864 173.896 94.4653 173.896ZM103.001 173.168C102.704 174.439 101.72 175.115 100.408 175.115C98.748 175.115 97.7334 174.019 97.7334 172.225C97.7334 170.36 98.7582 169.315 100.357 169.315C101.966 169.315 102.96 170.401 102.96 172.174V172.481H99.0862C99.1477 173.486 99.6089 174.039 100.408 174.039C101.023 174.039 101.443 173.752 101.618 173.168H103.001ZM100.357 170.391C99.6601 170.391 99.2399 170.831 99.1169 171.661H101.587C101.464 170.842 101.044 170.391 100.357 170.391ZM103.914 173.25V170.483H103.207V169.468H103.914V168.208H105.226V169.468H106.384V170.483H105.226V173.137C105.226 173.711 105.39 174.019 106.117 174.019H106.363V174.982C106.22 175.054 105.922 175.115 105.564 175.115C104.447 175.115 103.914 174.48 103.914 173.25ZM106.947 168.853V167.583H108.259V168.853H106.947ZM106.947 174.961V169.468H108.259V174.961H106.947ZM109.255 174.961V169.468H110.566V170.206C110.925 169.612 111.499 169.315 112.196 169.315C113.292 169.315 114.041 169.97 114.041 171.303V174.961H112.729V171.569C112.729 170.821 112.411 170.401 111.745 170.401C111.017 170.401 110.566 171.036 110.566 171.774V174.961H109.255ZM117.043 174.982C115.649 174.982 114.788 173.906 114.788 172.153C114.788 170.329 115.67 169.315 117.043 169.315C117.699 169.315 118.211 169.56 118.55 170.022V169.468H119.861V175.136C119.861 176.622 118.836 177.38 117.473 177.38C116.121 177.38 115.137 176.755 114.942 175.453H116.264C116.346 176.038 116.818 176.345 117.453 176.345C118.109 176.345 118.55 176.027 118.55 175.156V174.234C118.191 174.726 117.678 174.982 117.043 174.982ZM117.34 173.896C118.129 173.896 118.55 173.281 118.55 172.153C118.55 171.036 118.109 170.401 117.34 170.401C116.561 170.401 116.141 171.016 116.141 172.153C116.141 173.27 116.561 173.896 117.34 173.896Z" fill="#344054"/>
<rect x="77.1074" y="182.125" width="383.677" height="23.0458" rx="2.24185" fill="white"/>
<rect x="77.1074" y="182.125" width="383.677" height="23.0458" rx="2.24185" stroke="#D0D5DD" stroke-width="0.64053"/>
<path d="M85.9894 191.38C85.9894 193.348 90.263 191.821 90.263 194.68C90.263 196.023 89.1767 196.771 87.6907 196.771C86.1944 196.771 85.1696 196.084 84.8621 194.68H85.846C86.0714 195.51 86.6966 195.961 87.7009 195.961C88.7463 195.961 89.2997 195.5 89.2997 194.803C89.2997 192.672 85.0261 194.26 85.0261 191.442C85.0261 190.437 85.8664 189.556 87.4037 189.556C88.7463 189.556 89.8224 190.202 90.0786 191.688H89.0845C88.8693 190.765 88.2748 190.366 87.3832 190.366C86.5019 190.366 85.9894 190.765 85.9894 191.38ZM96.0692 194.875C95.772 196.146 94.8599 196.771 93.6198 196.771C92.0416 196.771 91.0885 195.705 91.0885 193.932C91.0885 192.087 92.0416 191.073 93.5686 191.073C95.1059 191.073 96.0282 192.128 96.0282 193.86V194.086H92.0108C92.0621 195.305 92.636 195.992 93.6198 195.992C94.3885 195.992 94.9316 195.623 95.1264 194.875H96.0692ZM93.5686 191.852C92.6975 191.852 92.1748 192.395 92.0416 193.409H95.0854C94.9624 192.405 94.4192 191.852 93.5686 191.852ZM97.23 196.648V189.269H98.1319V196.648H97.23ZM104.266 194.875C103.969 196.146 103.057 196.771 101.817 196.771C100.238 196.771 99.2852 195.705 99.2852 193.932C99.2852 192.087 100.238 191.073 101.765 191.073C103.303 191.073 104.225 192.128 104.225 193.86V194.086H100.208C100.259 195.305 100.833 195.992 101.817 195.992C102.585 195.992 103.128 195.623 103.323 194.875H104.266ZM101.765 191.852C100.894 191.852 100.372 192.395 100.238 193.409H103.282C103.159 192.405 102.616 191.852 101.765 191.852ZM109.926 193.081H109.024C108.881 192.251 108.327 191.852 107.61 191.852C106.605 191.852 106.072 192.59 106.072 193.932C106.072 195.254 106.636 196.002 107.64 196.002C108.368 196.002 108.891 195.613 109.065 194.834H109.967C109.721 196.187 108.809 196.771 107.62 196.771C106.072 196.771 105.15 195.695 105.15 193.932C105.15 192.087 106.093 191.073 107.61 191.073C108.809 191.073 109.752 191.749 109.926 193.081ZM111.204 195.08V191.923H110.446V191.206H111.204V189.956H112.106V191.206H113.305V191.923H112.106V195.08C112.106 195.736 112.301 196.043 113.1 196.043H113.285V196.689C113.182 196.74 112.957 196.771 112.701 196.771C111.686 196.771 111.204 196.228 111.204 195.08ZM117.046 192.979H116.144C116.318 191.78 117.107 191.073 118.44 191.073C119.895 191.073 120.602 191.923 120.602 193.194V195.336C120.602 195.961 120.653 196.351 120.797 196.648H119.844C119.741 196.433 119.71 196.115 119.7 195.787C119.239 196.474 118.501 196.771 117.845 196.771C116.718 196.771 115.96 196.248 115.96 195.213C115.96 194.465 116.369 193.922 117.169 193.655C117.907 193.409 118.655 193.348 119.7 193.338V193.215C119.7 192.333 119.29 191.852 118.358 191.852C117.579 191.852 117.159 192.282 117.046 192.979ZM116.882 195.193C116.882 195.695 117.302 195.992 117.937 195.992C118.942 195.992 119.7 195.203 119.7 194.27V194.014C117.384 194.035 116.882 194.527 116.882 195.193ZM125.545 194.424V191.206H126.446V196.648H125.545V195.91C125.176 196.484 124.602 196.771 123.895 196.771C122.757 196.771 122.081 196.105 122.081 194.844V191.206H122.982V194.66C122.982 195.48 123.341 196.002 124.141 196.002C125.022 196.002 125.545 195.203 125.545 194.424ZM129.925 196.771C128.48 196.771 127.609 195.705 127.609 193.932C127.609 192.087 128.5 191.073 129.925 191.073C130.57 191.073 131.093 191.339 131.452 191.841V189.269H132.354V196.648H131.452V195.961C131.093 196.474 130.57 196.771 129.925 196.771ZM129.986 195.992C130.939 195.992 131.452 195.264 131.452 193.932C131.452 192.61 130.919 191.852 129.986 191.852C129.043 191.852 128.531 192.59 128.531 193.932C128.531 195.244 129.064 195.992 129.986 195.992ZM133.79 190.478V189.269H134.692V190.478H133.79ZM133.79 196.648V191.206H134.692V196.648H133.79ZM140.826 194.875C140.529 196.146 139.617 196.771 138.377 196.771C136.799 196.771 135.845 195.705 135.845 193.932C135.845 192.087 136.799 191.073 138.326 191.073C139.863 191.073 140.785 192.128 140.785 193.86V194.086H136.768C136.819 195.305 137.393 195.992 138.377 195.992C139.145 195.992 139.689 195.623 139.883 194.875H140.826ZM138.326 191.852C137.454 191.852 136.932 192.395 136.799 193.409H139.842C139.719 192.405 139.176 191.852 138.326 191.852ZM141.987 196.648V191.206H142.889V191.944C143.258 191.37 143.852 191.073 144.57 191.073C145.728 191.073 146.414 191.749 146.414 193.01V196.648H145.513V193.194C145.513 192.374 145.144 191.841 144.324 191.841C143.422 191.841 142.889 192.651 142.889 193.43V196.648H141.987ZM152.351 193.081H151.449C151.306 192.251 150.752 191.852 150.035 191.852C149.03 191.852 148.498 192.59 148.498 193.932C148.498 195.254 149.061 196.002 150.066 196.002C150.793 196.002 151.316 195.613 151.49 194.834H152.392C152.146 196.187 151.234 196.771 150.045 196.771C148.498 196.771 147.575 195.695 147.575 193.932C147.575 192.087 148.518 191.073 150.035 191.073C151.234 191.073 152.177 191.749 152.351 193.081ZM158.211 194.875C157.913 196.146 157.001 196.771 155.761 196.771C154.183 196.771 153.23 195.705 153.23 193.932C153.23 192.087 154.183 191.073 155.71 191.073C157.247 191.073 158.17 192.128 158.17 193.86V194.086H154.152C154.203 195.305 154.777 195.992 155.761 195.992C156.53 195.992 157.073 195.623 157.268 194.875H158.211ZM155.71 191.852C154.839 191.852 154.316 192.395 154.183 193.409H157.227C157.104 192.405 156.561 191.852 155.71 191.852Z" fill="#98A2B3"/>
<path d="M441.891 191.726L445.734 195.569L449.577 191.726" stroke="#262626" stroke-width="1.28106" stroke-linecap="round" stroke-linejoin="round"/>
<path d="M82.3315 228.021L81.7986 226.575H78.8266L78.2936 228.021H76.9101L79.5337 221.052H81.1632L83.7868 228.021H82.3315ZM80.1076 223.122L79.2262 225.51H81.3989L80.5176 223.122L80.3126 222.404L80.1076 223.122ZM86.161 228.041C84.7672 228.041 83.9064 226.965 83.9064 225.212C83.9064 223.388 84.7877 222.374 86.161 222.374C86.8169 222.374 87.3294 222.62 87.6676 223.081V222.527H88.9794V228.195C88.9794 229.681 87.9545 230.439 86.5915 230.439C85.2387 230.439 84.2548 229.814 84.0601 228.512H85.3821C85.4641 229.097 85.9356 229.404 86.571 229.404C87.2269 229.404 87.6676 229.086 87.6676 228.215V227.293C87.3089 227.785 86.7964 228.041 86.161 228.041ZM86.4582 226.955C87.2474 226.955 87.6676 226.34 87.6676 225.212C87.6676 224.095 87.2269 223.46 86.4582 223.46C85.6793 223.46 85.2592 224.075 85.2592 225.212C85.2592 226.33 85.6793 226.955 86.4582 226.955ZM94.9941 226.227C94.6969 227.498 93.713 228.174 92.4012 228.174C90.741 228.174 89.7264 227.078 89.7264 225.284C89.7264 223.419 90.7512 222.374 92.35 222.374C93.959 222.374 94.9531 223.46 94.9531 225.233V225.54H91.0792C91.1407 226.545 91.6018 227.098 92.4012 227.098C93.0161 227.098 93.4363 226.811 93.6106 226.227H94.9941ZM92.35 223.45C91.6531 223.45 91.2329 223.89 91.1099 224.72H93.5798C93.4568 223.901 93.0366 223.45 92.35 223.45ZM103.618 228.021H102.654L102.541 227.139C102.111 227.846 101.383 228.174 100.523 228.174C98.606 228.174 97.3455 226.801 97.3455 224.546C97.3455 222.302 98.606 220.898 100.645 220.898C102.091 220.898 103.31 221.687 103.628 223.204H102.183C101.968 222.456 101.383 222.046 100.604 222.046C99.4362 222.046 98.7598 222.989 98.7598 224.546C98.7598 226.104 99.4669 227.026 100.656 227.026C101.517 227.026 102.214 226.534 102.306 225.376H100.799V224.331H103.618V228.021ZM104.58 228.021V222.527H105.892V223.327C106.251 222.671 106.804 222.374 107.399 222.374C107.624 222.374 107.829 222.435 107.932 222.527V223.665C107.757 223.614 107.563 223.593 107.327 223.593C106.333 223.593 105.892 224.188 105.892 225.1V228.021H104.58ZM110.696 228.174C109.067 228.174 108.062 227.078 108.062 225.284C108.062 223.419 109.097 222.374 110.696 222.374C112.315 222.374 113.32 223.48 113.32 225.284C113.32 227.129 112.285 228.174 110.696 228.174ZM110.696 227.088C111.526 227.088 111.967 226.452 111.967 225.284C111.967 224.116 111.516 223.46 110.696 223.46C109.856 223.46 109.415 224.106 109.415 225.284C109.415 226.442 109.866 227.088 110.696 227.088ZM117.481 225.715V222.527H118.793V228.021H117.481V227.283C117.123 227.887 116.559 228.174 115.882 228.174C114.796 228.174 114.069 227.518 114.069 226.196V222.527H115.38V225.93C115.38 226.678 115.688 227.088 116.333 227.088C117.041 227.088 117.481 226.452 117.481 225.715ZM121.11 230.275H119.798V222.527H121.11V223.152C121.459 222.65 121.951 222.374 122.555 222.374C123.99 222.374 124.871 223.47 124.871 225.264C124.871 227.129 123.97 228.174 122.555 228.174C121.951 228.174 121.448 227.918 121.11 227.426V230.275ZM122.32 223.46C121.53 223.46 121.11 224.095 121.11 225.264C121.11 226.432 121.551 227.088 122.32 227.088C123.098 227.088 123.519 226.442 123.519 225.264C123.519 224.106 123.088 223.46 122.32 223.46ZM126.715 224.003C126.715 225.264 130.179 224.198 130.179 226.401C130.179 227.457 129.205 228.174 127.832 228.174C126.479 228.174 125.506 227.549 125.311 226.227H126.623C126.715 226.821 127.186 227.16 127.873 227.16C128.519 227.16 128.857 226.883 128.857 226.483C128.857 225.253 125.465 226.309 125.465 224.085C125.465 223.193 126.162 222.374 127.596 222.374C128.857 222.374 129.81 222.968 129.974 224.331H128.662C128.56 223.665 128.17 223.398 127.545 223.398C127.023 223.398 126.715 223.655 126.715 224.003Z" fill="#344054"/>
<rect x="77.1074" y="235.184" width="44.1966" height="22.4186" rx="2.24185" fill="#FFF9FE"/>
<rect x="77.1074" y="235.184" width="44.1966" height="22.4186" rx="2.24185" stroke="#F11F68" stroke-width="0.64053"/>
<path d="M98.673 249.893L98.1529 248.521H95.373L94.8529 249.893H93.8486L96.198 243.795H97.3728L99.7222 249.893H98.673ZM96.5836 245.356L95.6779 247.732H97.848L96.9423 245.356L96.763 244.764L96.5836 245.356ZM100.462 249.893V243.437H101.421V249.893H100.462ZM102.581 249.893V243.437H103.541V249.893H102.581Z" fill="#262626"/>
<rect x="125.787" y="235.184" width="44.1966" height="22.4186" rx="2.24185" stroke="#E8E8E8" stroke-width="0.64053"/>
<path d="M136.542 249.893V249.149H137.636V245.365H136.542V244.629H137.124C137.654 244.629 137.797 244.504 137.797 244.226V244.127H138.64V249.149H139.725V249.893H136.542ZM143.17 250.01C141.852 250.01 140.982 249.346 140.982 248.288C140.982 247.634 141.332 247.158 141.915 246.889C141.448 246.62 141.179 246.19 141.179 245.634C141.179 244.656 141.986 244.011 143.17 244.011C144.363 244.011 145.17 244.62 145.17 245.634C145.17 246.19 144.883 246.629 144.408 246.889C145.008 247.167 145.358 247.66 145.358 248.279C145.358 249.364 144.488 250.01 143.17 250.01ZM143.17 244.791C142.542 244.791 142.121 245.123 142.121 245.67C142.121 246.244 142.533 246.566 143.17 246.566C143.798 246.566 144.228 246.226 144.228 245.679C144.228 245.114 143.816 244.791 143.17 244.791ZM143.17 249.23C143.914 249.23 144.399 248.871 144.399 248.234C144.399 247.607 143.896 247.239 143.17 247.239C142.435 247.239 141.941 247.598 141.941 248.243C141.941 248.853 142.435 249.23 143.17 249.23ZM146.283 247.858V247.042H148.695V247.858H146.283ZM149.785 249.893V249.642C149.785 247.06 152.915 247.239 152.915 245.777C152.915 245.176 152.556 244.818 151.91 244.818C151.202 244.818 150.852 245.185 150.744 245.795H149.767C149.919 244.692 150.682 244.011 151.919 244.011C153.219 244.011 153.883 244.782 153.883 245.768C153.883 247.571 151.166 247.634 150.771 249.149H153.928V249.893H149.785ZM158.53 249.893H157.552V248.602H154.808V247.741L157.651 244.127H158.53V247.849H159.328V248.602H158.53V249.893ZM155.642 247.849H157.552V245.338L155.642 247.849Z" fill="#262626"/>
<rect x="174.469" y="235.184" width="44.1966" height="22.4186" rx="2.24185" stroke="#E8E8E8" stroke-width="0.64053"/>
<path d="M184.578 249.893V249.642C184.578 247.06 187.707 247.239 187.707 245.777C187.707 245.176 187.348 244.818 186.703 244.818C185.994 244.818 185.645 245.185 185.537 245.795H184.56C184.712 244.692 185.474 244.011 186.712 244.011C188.012 244.011 188.676 244.782 188.676 245.768C188.676 247.571 185.959 247.634 185.564 249.149H188.72V249.893H184.578ZM194.067 247.965C194.067 249.149 193.313 250.01 191.897 250.01C190.596 250.01 189.798 249.346 189.637 248.243H190.596C190.695 248.835 191.116 249.203 191.888 249.203C192.695 249.203 193.107 248.745 193.107 247.983C193.107 247.347 192.802 246.719 191.879 246.719C191.269 246.719 190.919 246.988 190.722 247.284L189.861 247.203L190.04 244.127H193.789V244.881H190.811L190.722 246.306C191.045 246.073 191.43 245.921 191.959 245.921C193.475 245.921 194.067 246.871 194.067 247.965ZM194.965 247.858V247.042H197.377V247.858H194.965ZM202.771 248.27C202.771 249.248 202.018 250.01 200.565 250.01C199.274 250.01 198.44 249.328 198.278 248.198H199.256C199.354 248.817 199.767 249.203 200.556 249.203C201.363 249.203 201.793 248.844 201.793 248.225C201.793 247.768 201.542 247.293 200.314 247.293H200.036V246.557H200.26C201.435 246.557 201.632 246.073 201.632 245.697C201.632 245.15 201.264 244.818 200.574 244.818C199.848 244.818 199.471 245.185 199.363 245.795H198.404C198.556 244.692 199.336 244.011 200.583 244.011C201.91 244.011 202.609 244.737 202.609 245.688C202.609 246.226 202.385 246.629 201.829 246.871C202.511 247.158 202.771 247.66 202.771 248.27ZM207.211 249.893H206.234V248.602H203.49V247.741L206.333 244.127H207.211V247.849H208.009V248.602H207.211V249.893ZM204.324 247.849H206.234V245.338L204.324 247.849Z" fill="#262626"/>
<rect x="223.148" y="235.184" width="44.1966" height="22.4186" rx="2.24185" stroke="#E8E8E8" stroke-width="0.64053"/>
<path d="M237.562 248.27C237.562 249.248 236.808 250.01 235.356 250.01C234.064 250.01 233.23 249.328 233.069 248.198H234.046C234.145 248.817 234.558 249.203 235.347 249.203C236.154 249.203 236.584 248.844 236.584 248.225C236.584 247.768 236.333 247.293 235.105 247.293H234.827V246.557H235.051C236.225 246.557 236.423 246.073 236.423 245.697C236.423 245.15 236.055 244.818 235.365 244.818C234.638 244.818 234.262 245.185 234.154 245.795H233.194C233.347 244.692 234.127 244.011 235.374 244.011C236.701 244.011 237.4 244.737 237.4 245.688C237.4 246.226 237.176 246.629 236.62 246.871C237.302 247.158 237.562 247.66 237.562 248.27ZM242.746 247.965C242.746 249.149 241.993 250.01 240.576 250.01C239.276 250.01 238.478 249.346 238.316 248.243H239.276C239.375 248.835 239.796 249.203 240.567 249.203C241.374 249.203 241.787 248.745 241.787 247.983C241.787 247.347 241.482 246.719 240.558 246.719C239.948 246.719 239.599 246.988 239.401 247.284L238.541 247.203L238.72 244.127H242.468V244.881H239.491L239.401 246.306C239.724 246.073 240.11 245.921 240.639 245.921C242.154 245.921 242.746 246.871 242.746 247.965ZM243.645 247.858V247.042H246.057V247.858H243.645ZM250.724 249.893H249.747V248.602H247.003V247.741L249.845 244.127H250.724V247.849H251.522V248.602H250.724V249.893ZM247.837 247.849H249.747V245.338L247.837 247.849ZM255.891 249.893H254.914V248.602H252.17V247.741L255.012 244.127H255.891V247.849H256.689V248.602H255.891V249.893ZM253.003 247.849H254.914V245.338L253.003 247.849Z" fill="#262626"/>
<rect x="271.828" y="235.184" width="44.1966" height="22.4186" rx="2.24185" stroke="#E8E8E8" stroke-width="0.64053"/>
<path d="M285.515 249.893H284.537V248.602H281.793V247.741L284.636 244.127H285.515V247.849H286.313V248.602H285.515V249.893ZM282.627 247.849H284.537V245.338L282.627 247.849ZM291.426 247.965C291.426 249.149 290.673 250.01 289.256 250.01C287.956 250.01 287.158 249.346 286.996 248.243H287.956C288.054 248.835 288.476 249.203 289.247 249.203C290.054 249.203 290.466 248.745 290.466 247.983C290.466 247.347 290.162 246.719 289.238 246.719C288.628 246.719 288.278 246.988 288.081 247.284L287.22 247.203L287.4 244.127H291.148V244.881H288.171L288.081 246.306C288.404 246.073 288.79 245.921 289.319 245.921C290.834 245.921 291.426 246.871 291.426 247.965ZM292.324 247.858V247.042H294.737V247.858H292.324ZM300.148 247.965C300.148 249.149 299.395 250.01 297.978 250.01C296.678 250.01 295.88 249.346 295.718 248.243H296.678C296.776 248.835 297.198 249.203 297.969 249.203C298.776 249.203 299.189 248.745 299.189 247.983C299.189 247.347 298.884 246.719 297.96 246.719C297.35 246.719 297.001 246.988 296.803 247.284L295.942 247.203L296.122 244.127H299.87V244.881H296.893L296.803 246.306C297.126 246.073 297.512 245.921 298.041 245.921C299.556 245.921 300.148 246.871 300.148 247.965ZM304.571 249.893H303.593V248.602H300.849V247.741L303.692 244.127H304.571V247.849H305.369V248.602H304.571V249.893ZM301.683 247.849H303.593V245.338L301.683 247.849Z" fill="#262626"/>
<rect x="320.51" y="235.184" width="44.1966" height="22.4186" rx="2.24185" stroke="#E8E8E8" stroke-width="0.64053"/>
<path d="M334.941 247.965C334.941 249.149 334.188 250.01 332.771 250.01C331.47 250.01 330.672 249.346 330.511 248.243H331.47C331.569 248.835 331.991 249.203 332.762 249.203C333.569 249.203 333.981 248.745 333.981 247.983C333.981 247.347 333.676 246.719 332.753 246.719C332.143 246.719 331.793 246.988 331.596 247.284L330.735 247.203L330.914 244.127H334.663V244.881H331.686L331.596 246.306C331.919 246.073 332.304 245.921 332.834 245.921C334.349 245.921 334.941 246.871 334.941 247.965ZM340.108 247.965C340.108 249.149 339.354 250.01 337.938 250.01C336.637 250.01 335.839 249.346 335.678 248.243H336.637C336.736 248.835 337.157 249.203 337.929 249.203C338.736 249.203 339.148 248.745 339.148 247.983C339.148 247.347 338.843 246.719 337.92 246.719C337.31 246.719 336.96 246.988 336.763 247.284L335.902 247.203L336.081 244.127H339.83V244.881H336.852L336.763 246.306C337.086 246.073 337.471 245.921 338 245.921C339.516 245.921 340.108 246.871 340.108 247.965ZM341.006 247.858V247.042H343.418V247.858H341.006ZM348.902 248.037C348.902 249.266 347.987 250.01 346.749 250.01C346.74 250.01 346.74 250.01 346.731 250.01C345.324 250.001 344.373 249.068 344.373 247.015C344.373 245.087 345.252 244.011 346.731 244.011C347.826 244.011 348.606 244.638 348.875 245.777H347.897C347.709 245.141 347.278 244.827 346.696 244.827C345.808 244.827 345.306 245.535 345.27 246.853C345.611 246.378 346.167 246.118 346.812 246.118C348.059 246.118 348.902 246.835 348.902 248.037ZM346.723 249.203C347.44 249.203 347.915 248.799 347.915 248.073C347.915 247.347 347.431 246.916 346.723 246.916C345.987 246.916 345.512 247.338 345.512 248.073C345.512 248.781 345.996 249.203 346.723 249.203ZM353.252 249.893H352.275V248.602H349.531V247.741L352.374 244.127H353.252V247.849H354.05V248.602H353.252V249.893ZM350.365 247.849H352.275V245.338L350.365 247.849Z" fill="#262626"/>
<rect x="369.189" y="235.184" width="44.1966" height="22.4186" rx="2.24185" stroke="#E8E8E8" stroke-width="0.64053"/>
<path d="M388.192 248.037C388.192 249.266 387.278 250.01 386.04 250.01C386.031 250.01 386.031 250.01 386.022 250.01C384.614 250.001 383.664 249.068 383.664 247.015C383.664 245.087 384.543 244.011 386.022 244.011C387.116 244.011 387.896 244.638 388.165 245.777H387.188C387 245.141 386.569 244.827 385.986 244.827C385.099 244.827 384.596 245.535 384.56 246.853C384.901 246.378 385.457 246.118 386.103 246.118C387.349 246.118 388.192 246.835 388.192 248.037ZM386.013 249.203C386.731 249.203 387.206 248.799 387.206 248.073C387.206 247.347 386.722 246.916 386.013 246.916C385.278 246.916 384.803 247.338 384.803 248.073C384.803 248.781 385.287 249.203 386.013 249.203ZM393.287 247.965C393.287 249.149 392.534 250.01 391.117 250.01C389.817 250.01 389.019 249.346 388.857 248.243H389.817C389.916 248.835 390.337 249.203 391.108 249.203C391.915 249.203 392.328 248.745 392.328 247.983C392.328 247.347 392.023 246.719 391.099 246.719C390.489 246.719 390.14 246.988 389.942 247.284L389.082 247.203L389.261 244.127H393.009V244.881H390.032L389.942 246.306C390.265 246.073 390.651 245.921 391.18 245.921C392.695 245.921 393.287 246.871 393.287 247.965ZM394.419 247.409V246.656H395.818V245.257H396.589V246.656H397.979V247.409H396.589V248.817H395.818V247.409H394.419Z" fill="#262626"/>
<path d="M77.4738 280.452V273.483H78.8573V279.335H82.0856V280.452H77.4738ZM82.7614 274.344V273.073H84.0732V274.344H82.7614ZM82.7614 280.452V274.959H84.0732V280.452H82.7614ZM86.1651 276.435C86.1651 277.695 89.6291 276.629 89.6291 278.833C89.6291 279.888 88.6555 280.606 87.2822 280.606C85.9294 280.606 84.9558 279.981 84.7611 278.659H86.0729C86.1651 279.253 86.6365 279.591 87.3232 279.591C87.9688 279.591 88.307 279.315 88.307 278.915C88.307 277.685 84.9148 278.741 84.9148 276.517C84.9148 275.625 85.6117 274.805 87.0465 274.805C88.307 274.805 89.2602 275.4 89.4241 276.763H88.1123C88.0098 276.097 87.6204 275.83 86.9952 275.83C86.4726 275.83 86.1651 276.086 86.1651 276.435ZM90.4923 278.741V275.974H89.7851V274.959H90.4923V273.698H91.8041V274.959H92.9622V275.974H91.8041V278.628C91.8041 279.202 91.9681 279.509 92.6957 279.509H92.9417V280.473C92.7982 280.544 92.501 280.606 92.1423 280.606C91.0252 280.606 90.4923 279.97 90.4923 278.741ZM98.5374 278.659C98.2402 279.929 97.2564 280.606 95.9446 280.606C94.2843 280.606 93.2697 279.509 93.2697 277.716C93.2697 275.851 94.2946 274.805 95.8933 274.805C97.5023 274.805 98.4964 275.892 98.4964 277.665V277.972H94.6225C94.684 278.976 95.1452 279.53 95.9446 279.53C96.5595 279.53 96.9797 279.243 97.1539 278.659H98.5374ZM95.8933 275.881C95.1964 275.881 94.7762 276.322 94.6533 277.152H97.1231C97.0002 276.332 96.58 275.881 95.8933 275.881ZM99.2759 280.452V274.959H100.588V275.697C100.946 275.102 101.52 274.805 102.217 274.805C103.314 274.805 104.062 275.461 104.062 276.793V280.452H102.75V277.06C102.75 276.312 102.432 275.892 101.766 275.892C101.039 275.892 100.588 276.527 100.588 277.265V280.452H99.2759ZM110.077 278.659C109.78 279.929 108.796 280.606 107.485 280.606C105.824 280.606 104.81 279.509 104.81 277.716C104.81 275.851 105.835 274.805 107.433 274.805C109.042 274.805 110.036 275.892 110.036 277.665V277.972H106.162C106.224 278.976 106.685 279.53 107.485 279.53C108.099 279.53 108.52 279.243 108.694 278.659H110.077ZM107.433 275.881C106.736 275.881 106.316 276.322 106.193 277.152H108.663C108.54 276.332 108.12 275.881 107.433 275.881ZM110.816 280.452V274.959H112.128V275.758C112.486 275.102 113.04 274.805 113.634 274.805C113.86 274.805 114.065 274.867 114.167 274.959V276.097C113.993 276.045 113.798 276.025 113.562 276.025C112.568 276.025 112.128 276.619 112.128 277.531V280.452H110.816ZM115.751 276.435C115.751 277.695 119.215 276.629 119.215 278.833C119.215 279.888 118.241 280.606 116.868 280.606C115.515 280.606 114.541 279.981 114.347 278.659H115.659C115.751 279.253 116.222 279.591 116.909 279.591C117.555 279.591 117.893 279.315 117.893 278.915C117.893 277.685 114.5 278.741 114.5 276.517C114.5 275.625 115.197 274.805 116.632 274.805C117.893 274.805 118.846 275.4 119.01 276.763H117.698C117.596 276.097 117.206 275.83 116.581 275.83C116.058 275.83 115.751 276.086 115.751 276.435ZM122.982 280.452H121.67V273.073H122.982V275.574C123.331 275.082 123.823 274.805 124.427 274.805C125.852 274.805 126.733 275.902 126.733 277.695C126.733 279.561 125.831 280.606 124.427 280.606C123.823 280.606 123.32 280.35 122.982 279.868V280.452ZM124.192 275.892C123.402 275.892 122.982 276.527 122.982 277.695C122.982 278.864 123.413 279.52 124.192 279.52C124.97 279.52 125.391 278.874 125.391 277.695C125.391 276.537 124.96 275.892 124.192 275.892ZM127.794 282.861C127.527 282.861 127.25 282.789 127.117 282.738V281.733H127.425C128.019 281.733 128.296 281.61 128.716 280.565L128.849 280.227L126.687 274.959H128.091L129.31 278.146L129.536 278.946L129.761 278.146L130.93 274.959H132.272L129.854 280.995C129.29 282.42 128.798 282.861 127.794 282.861ZM136.485 280.473C135.091 280.473 134.23 279.397 134.23 277.644C134.23 275.82 135.112 274.805 136.485 274.805C137.141 274.805 137.653 275.051 137.992 275.512V274.959H139.303V280.626C139.303 282.112 138.279 282.871 136.916 282.871C135.563 282.871 134.579 282.246 134.384 280.944H135.706C135.788 281.528 136.26 281.836 136.895 281.836C137.551 281.836 137.992 281.518 137.992 280.647V279.725C137.633 280.216 137.12 280.473 136.485 280.473ZM136.782 279.386C137.571 279.386 137.992 278.771 137.992 277.644C137.992 276.527 137.551 275.892 136.782 275.892C136.003 275.892 135.583 276.506 135.583 277.644C135.583 278.761 136.003 279.386 136.782 279.386ZM145.318 278.659C145.021 279.929 144.037 280.606 142.725 280.606C141.065 280.606 140.05 279.509 140.05 277.716C140.05 275.851 141.075 274.805 142.674 274.805C144.283 274.805 145.277 275.892 145.277 277.665V277.972H141.403C141.465 278.976 141.926 279.53 142.725 279.53C143.34 279.53 143.76 279.243 143.935 278.659H145.318ZM142.674 275.881C141.977 275.881 141.557 276.322 141.434 277.152H143.904C143.781 276.332 143.361 275.881 142.674 275.881ZM146.057 280.452V274.959H147.368V275.697C147.727 275.102 148.301 274.805 148.998 274.805C150.094 274.805 150.843 275.461 150.843 276.793V280.452H149.531V277.06C149.531 276.312 149.213 275.892 148.547 275.892C147.819 275.892 147.368 276.527 147.368 277.265V280.452H146.057ZM153.907 280.606C152.472 280.606 151.59 279.509 151.59 277.716C151.59 275.851 152.492 274.805 153.907 274.805C154.511 274.805 155.013 275.061 155.352 275.553V273.073H156.663V280.452H155.352V279.827C155.003 280.329 154.511 280.606 153.907 280.606ZM154.142 279.52C154.931 279.52 155.352 278.884 155.352 277.716C155.352 276.547 154.911 275.892 154.142 275.892C153.363 275.892 152.943 276.537 152.943 277.716C152.943 278.874 153.374 279.52 154.142 279.52ZM162.668 278.659C162.371 279.929 161.387 280.606 160.075 280.606C158.415 280.606 157.4 279.509 157.4 277.716C157.4 275.851 158.425 274.805 160.024 274.805C161.633 274.805 162.627 275.892 162.627 277.665V277.972H158.753C158.815 278.976 159.276 279.53 160.075 279.53C160.69 279.53 161.11 279.243 161.285 278.659H162.668ZM160.024 275.881C159.327 275.881 158.907 276.322 158.784 277.152H161.254C161.131 276.332 160.711 275.881 160.024 275.881ZM163.407 280.452V274.959H164.718V275.758C165.077 275.102 165.63 274.805 166.225 274.805C166.45 274.805 166.655 274.867 166.758 274.959V276.097C166.584 276.045 166.389 276.025 166.153 276.025C165.159 276.025 164.718 276.619 164.718 277.531V280.452H163.407Z" fill="#344054"/>
<rect x="77.2675" y="287.776" width="14.4119" height="14.4119" rx="7.20596" fill="#F11F68"/>
<rect x="77.2675" y="287.776" width="14.4119" height="14.4119" rx="7.20596" stroke="#F11F68" stroke-width="0.960795"/>
<rect x="81.5918" y="292.099" width="5.76477" height="5.76477" rx="2.88239" fill="white"/>
<path d="M103.532 298.482L103.012 297.11H100.232L99.7123 298.482H98.7079L101.057 292.384H102.232L104.582 298.482H103.532ZM101.443 293.944L100.537 296.321H102.707L101.802 293.944L101.622 293.352L101.443 293.944ZM105.321 298.482V292.025H106.281V298.482H105.321ZM107.44 298.482V292.025H108.4V298.482H107.44Z" fill="#0F0E11"/>
<rect x="122.855" y="287.776" width="14.4119" height="14.4119" rx="7.20596" stroke="#D0D5DD" stroke-width="0.960795"/>
<path d="M144.807 298.482V292.384H146.161L147.883 296.607L148.089 297.253L148.295 296.607L149.999 292.384H151.317V298.482H150.313L150.34 293.541L149.9 294.85L148.421 298.482H147.703L146.215 294.841L145.784 293.568L145.811 298.482H144.807ZM153.461 295.262H152.502C152.654 294.204 153.38 293.577 154.573 293.577C155.873 293.577 156.519 294.339 156.519 295.451V297.316C156.519 297.89 156.573 298.222 156.68 298.482H155.676C155.604 298.302 155.577 298.051 155.568 297.782C155.165 298.347 154.546 298.598 153.972 298.598C153.004 298.598 152.34 298.141 152.34 297.226C152.34 296.572 152.699 296.087 153.416 295.845C154.053 295.63 154.699 295.576 155.56 295.567V295.46C155.56 294.76 155.237 294.384 154.501 294.384C153.883 294.384 153.551 294.724 153.461 295.262ZM153.309 297.19C153.309 297.594 153.641 297.845 154.152 297.845C154.95 297.845 155.56 297.208 155.56 296.437V296.222C153.721 296.24 153.309 296.643 153.309 297.19ZM157.722 298.482V292.025H158.682V298.482H157.722ZM164.083 296.921C163.823 298.033 162.998 298.598 161.877 298.598C160.469 298.598 159.608 297.657 159.608 296.096C159.608 294.473 160.469 293.577 161.832 293.577C163.213 293.577 164.047 294.509 164.047 296.043V296.276H160.586C160.64 297.253 161.097 297.8 161.877 297.8C162.487 297.8 162.917 297.513 163.079 296.921H164.083ZM161.832 294.375C161.142 294.375 160.729 294.814 160.613 295.621H163.052C162.935 294.814 162.514 294.375 161.832 294.375Z" fill="#0F0E11"/>
<rect x="178.445" y="287.776" width="14.4119" height="14.4119" rx="7.20596" stroke="#D0D5DD" stroke-width="0.960795"/>
<path d="M200.397 298.482V292.384H204.603V293.191H201.401V295.11H204.262V295.917H201.401V298.482H200.397ZM209.558 296.921C209.298 298.033 208.473 298.598 207.352 298.598C205.944 298.598 205.084 297.657 205.084 296.096C205.084 294.473 205.944 293.577 207.307 293.577C208.688 293.577 209.522 294.509 209.522 296.043V296.276H206.061C206.115 297.253 206.572 297.8 207.352 297.8C207.962 297.8 208.393 297.513 208.554 296.921H209.558ZM207.307 294.375C206.617 294.375 206.204 294.814 206.088 295.621H208.527C208.41 294.814 207.989 294.375 207.307 294.375ZM210.483 298.482V293.702H211.443V294.312C211.748 293.819 212.223 293.577 212.788 293.577C213.425 293.577 213.9 293.855 214.133 294.402C214.447 293.855 214.967 293.577 215.595 293.577C216.536 293.577 217.146 294.159 217.146 295.289V298.482H216.187V295.487C216.187 294.796 215.927 294.375 215.335 294.375C214.689 294.375 214.295 295.011 214.295 295.675V298.482H213.335V295.487C213.335 294.796 213.066 294.375 212.483 294.375C211.838 294.375 211.443 295.011 211.443 295.675V298.482H210.483ZM219.218 295.262H218.259C218.411 294.204 219.137 293.577 220.33 293.577C221.63 293.577 222.276 294.339 222.276 295.451V297.316C222.276 297.89 222.33 298.222 222.437 298.482H221.433C221.361 298.302 221.334 298.051 221.326 297.782C220.922 298.347 220.303 298.598 219.729 298.598C218.761 298.598 218.097 298.141 218.097 297.226C218.097 296.572 218.456 296.087 219.173 295.845C219.81 295.63 220.456 295.576 221.317 295.567V295.46C221.317 294.76 220.994 294.384 220.258 294.384C219.64 294.384 219.308 294.724 219.218 295.262ZM219.066 297.19C219.066 297.594 219.398 297.845 219.909 297.845C220.707 297.845 221.317 297.208 221.317 296.437V296.222C219.478 296.24 219.066 296.643 219.066 297.19ZM223.479 298.482V292.025H224.439V298.482H223.479ZM229.84 296.921C229.58 298.033 228.755 298.598 227.634 298.598C226.226 298.598 225.365 297.657 225.365 296.096C225.365 294.473 226.226 293.577 227.589 293.577C228.97 293.577 229.804 294.509 229.804 296.043V296.276H226.343C226.397 297.253 226.854 297.8 227.634 297.8C228.244 297.8 228.674 297.513 228.836 296.921H229.84ZM227.589 294.375C226.899 294.375 226.486 294.814 226.37 295.621H228.809C228.692 294.814 228.271 294.375 227.589 294.375Z" fill="#0F0E11"/>
<path d="M78.6421 319.981C78.6421 321.652 82.8132 320.299 82.8132 323.148C82.8132 324.552 81.6654 325.351 80.0871 325.351C78.4986 325.351 77.3713 324.614 77.1048 323.097H78.5498C78.7241 323.835 79.257 324.245 80.0974 324.245C80.9582 324.245 81.3989 323.886 81.3989 323.322C81.3989 321.549 77.238 322.882 77.238 320.104C77.238 318.997 78.1502 318.075 79.8002 318.075C81.2042 318.075 82.393 318.751 82.6185 320.319H81.153C80.989 319.541 80.5073 319.182 79.7592 319.182C79.0623 319.182 78.6421 319.5 78.6421 319.981ZM83.7063 323.486V320.719H82.9991V319.705H83.7063V318.444H85.0181V319.705H86.1762V320.719H85.0181V323.374C85.0181 323.947 85.1821 324.255 85.9097 324.255H86.1557V325.218C86.0122 325.29 85.715 325.351 85.3563 325.351C84.2392 325.351 83.7063 324.716 83.7063 323.486ZM88.0107 321.508H86.6887C86.8629 320.289 87.7545 319.551 89.138 319.551C90.6651 319.551 91.444 320.453 91.444 321.724V323.855C91.444 324.532 91.5054 324.911 91.6079 325.198H90.2449C90.1731 325.013 90.1424 324.747 90.1322 324.45C89.6812 325.085 89.0048 325.351 88.3489 325.351C87.2728 325.351 86.5042 324.819 86.5042 323.763C86.5042 323.015 86.9244 322.451 87.7648 322.174C88.4924 321.928 89.1995 321.867 90.1219 321.857V321.724C90.1219 321.016 89.7837 320.637 89.0561 320.637C88.4309 320.637 88.0927 320.986 88.0107 321.508ZM87.8262 323.691C87.8262 324.111 88.1542 324.378 88.6871 324.378C89.4967 324.378 90.1219 323.722 90.1219 322.902V322.666C88.2567 322.697 87.8262 323.138 87.8262 323.691ZM92.4899 325.198V319.705H93.8017V320.504C94.1604 319.848 94.7138 319.551 95.3082 319.551C95.5337 319.551 95.7386 319.612 95.8411 319.705V320.842C95.6669 320.791 95.4722 320.77 95.2365 320.77C94.2424 320.77 93.8017 321.365 93.8017 322.277V325.198H92.4899ZM96.5025 323.486V320.719H95.7953V319.705H96.5025V318.444H97.8143V319.705H98.9723V320.719H97.8143V323.374C97.8143 323.947 97.9782 324.255 98.7059 324.255H98.9518V325.218C98.8084 325.29 98.5112 325.351 98.1525 325.351C97.0354 325.351 96.5025 324.716 96.5025 323.486ZM101.385 325.198V318.229H103.916C106.099 318.229 107.462 319.551 107.462 321.724C107.462 323.896 106.099 325.198 103.916 325.198H101.385ZM103.916 324.081C105.259 324.081 106.058 323.21 106.058 321.724C106.058 320.227 105.259 319.346 103.916 319.346H102.768V324.081H103.916ZM109.595 321.508H108.273C108.447 320.289 109.338 319.551 110.722 319.551C112.249 319.551 113.028 320.453 113.028 321.724V323.855C113.028 324.532 113.089 324.911 113.192 325.198H111.829C111.757 325.013 111.726 324.747 111.716 324.45C111.265 325.085 110.589 325.351 109.933 325.351C108.857 325.351 108.088 324.819 108.088 323.763C108.088 323.015 108.508 322.451 109.349 322.174C110.076 321.928 110.783 321.867 111.706 321.857V321.724C111.706 321.016 111.368 320.637 110.64 320.637C110.015 320.637 109.677 320.986 109.595 321.508ZM109.41 323.691C109.41 324.111 109.738 324.378 110.271 324.378C111.081 324.378 111.706 323.722 111.706 322.902V322.666C109.841 322.697 109.41 323.138 109.41 323.691ZM114.248 323.486V320.719H113.541V319.705H114.248V318.444H115.56V319.705H116.718V320.719H115.56V323.374C115.56 323.947 115.724 324.255 116.451 324.255H116.697V325.218C116.554 325.29 116.257 325.351 115.898 325.351C114.781 325.351 114.248 324.716 114.248 323.486ZM122.293 323.404C121.996 324.675 121.012 325.351 119.7 325.351C118.04 325.351 117.025 324.255 117.025 322.461C117.025 320.596 118.05 319.551 119.649 319.551C121.258 319.551 122.252 320.637 122.252 322.41V322.718H118.378C118.44 323.722 118.901 324.275 119.7 324.275C120.315 324.275 120.735 323.988 120.91 323.404H122.293ZM119.649 320.627C118.952 320.627 118.532 321.068 118.409 321.898H120.879C120.756 321.078 120.336 320.627 119.649 320.627Z" fill="#344054"/>
<rect x="77.1074" y="332.361" width="808.989" height="23.0458" rx="2.24185" fill="white"/>
<rect x="77.1074" y="332.361" width="808.989" height="23.0458" rx="2.24185" stroke="#D0D5DD" stroke-width="0.64053"/>
<path d="M85.9894 341.617C85.9894 343.584 90.263 342.057 90.263 344.917C90.263 346.259 89.1767 347.007 87.6907 347.007C86.1944 347.007 85.1696 346.321 84.8621 344.917H85.846C86.0714 345.747 86.6966 346.198 87.7009 346.198C88.7463 346.198 89.2997 345.736 89.2997 345.04C89.2997 342.908 85.0261 344.496 85.0261 341.678C85.0261 340.674 85.8664 339.792 87.4037 339.792C88.7463 339.792 89.8224 340.438 90.0786 341.924H89.0845C88.8693 341.002 88.2748 340.602 87.3832 340.602C86.5019 340.602 85.9894 341.002 85.9894 341.617ZM96.0692 345.111C95.772 346.382 94.8599 347.007 93.6198 347.007C92.0416 347.007 91.0885 345.941 91.0885 344.168C91.0885 342.324 92.0416 341.309 93.5686 341.309C95.1059 341.309 96.0282 342.365 96.0282 344.097V344.322H92.0108C92.0621 345.542 92.636 346.228 93.6198 346.228C94.3885 346.228 94.9316 345.859 95.1264 345.111H96.0692ZM93.5686 342.088C92.6975 342.088 92.1748 342.631 92.0416 343.646H95.0854C94.9624 342.641 94.4192 342.088 93.5686 342.088ZM97.23 346.884V339.505H98.1319V346.884H97.23ZM104.266 345.111C103.969 346.382 103.057 347.007 101.817 347.007C100.238 347.007 99.2852 345.941 99.2852 344.168C99.2852 342.324 100.238 341.309 101.765 341.309C103.303 341.309 104.225 342.365 104.225 344.097V344.322H100.208C100.259 345.542 100.833 346.228 101.817 346.228C102.585 346.228 103.128 345.859 103.323 345.111H104.266ZM101.765 342.088C100.894 342.088 100.372 342.631 100.238 343.646H103.282C103.159 342.641 102.616 342.088 101.765 342.088ZM109.926 343.318H109.024C108.881 342.488 108.327 342.088 107.61 342.088C106.605 342.088 106.072 342.826 106.072 344.168C106.072 345.49 106.636 346.239 107.64 346.239C108.368 346.239 108.891 345.849 109.065 345.07H109.967C109.721 346.423 108.809 347.007 107.62 347.007C106.072 347.007 105.15 345.931 105.15 344.168C105.15 342.324 106.093 341.309 107.61 341.309C108.809 341.309 109.752 341.986 109.926 343.318ZM111.204 345.316V342.16H110.446V341.442H111.204V340.192H112.106V341.442H113.305V342.16H112.106V345.316C112.106 345.972 112.301 346.28 113.1 346.28H113.285V346.925C113.182 346.977 112.957 347.007 112.701 347.007C111.686 347.007 111.204 346.464 111.204 345.316ZM118.255 347.007C116.81 347.007 115.939 345.941 115.939 344.168C115.939 342.324 116.831 341.309 118.255 341.309C118.901 341.309 119.423 341.576 119.782 342.078V339.505H120.684V346.884H119.782V346.198C119.423 346.71 118.901 347.007 118.255 347.007ZM118.317 346.228C119.27 346.228 119.782 345.501 119.782 344.168C119.782 342.846 119.249 342.088 118.317 342.088C117.374 342.088 116.861 342.826 116.861 344.168C116.861 345.48 117.394 346.228 118.317 346.228ZM122.951 343.215H122.049C122.223 342.016 123.012 341.309 124.345 341.309C125.8 341.309 126.507 342.16 126.507 343.431V345.572C126.507 346.198 126.558 346.587 126.702 346.884H125.749C125.646 346.669 125.615 346.351 125.605 346.023C125.144 346.71 124.406 347.007 123.75 347.007C122.623 347.007 121.864 346.485 121.864 345.449C121.864 344.701 122.274 344.158 123.074 343.892C123.812 343.646 124.56 343.584 125.605 343.574V343.451C125.605 342.57 125.195 342.088 124.263 342.088C123.484 342.088 123.063 342.518 122.951 343.215ZM122.787 345.429C122.787 345.931 123.207 346.228 123.842 346.228C124.847 346.228 125.605 345.439 125.605 344.507V344.25C123.289 344.271 122.787 344.763 122.787 345.429ZM128.108 345.316V342.16H127.35V341.442H128.108V340.192H129.01V341.442H130.209V342.16H129.01V345.316C129.01 345.972 129.205 346.28 130.004 346.28H130.189V346.925C130.086 346.977 129.861 347.007 129.605 347.007C128.59 347.007 128.108 346.464 128.108 345.316ZM135.772 345.111C135.475 346.382 134.563 347.007 133.323 347.007C131.744 347.007 130.791 345.941 130.791 344.168C130.791 342.324 131.744 341.309 133.271 341.309C134.809 341.309 135.731 342.365 135.731 344.097V344.322H131.714C131.765 345.542 132.339 346.228 133.323 346.228C134.091 346.228 134.634 345.859 134.829 345.111H135.772ZM133.271 342.088C132.4 342.088 131.878 342.631 131.744 343.646H134.788C134.665 342.641 134.122 342.088 133.271 342.088Z" fill="#98A2B3"/>
</g>
</g>
<g filter="url(#filter0_d_942_6257)">
<path d="M32.5 231.381C32.5 224.781 37.8505 219.43 44.4506 219.43H504.549C511.15 219.43 516.5 224.781 516.5 231.381V312.794C516.5 319.395 511.15 324.745 504.549 324.745H44.4506C37.8505 324.745 32.5 319.395 32.5 312.794V231.381Z" fill="white" shape-rendering="crispEdges"/>
<path d="M51.3266 255.301V246.158H54.849C56.8522 246.158 58.1026 247.14 58.1026 248.699C58.1026 249.506 57.6992 250.124 56.9867 250.474C58.0353 250.824 58.6134 251.603 58.6134 252.652C58.6134 254.333 57.4034 255.301 55.3061 255.301H51.3266ZM54.8087 247.597H53.1416V249.963H54.7683C55.7363 249.963 56.2472 249.493 56.2472 248.793C56.2472 248.054 55.7229 247.597 54.8087 247.597ZM55.1582 251.308H53.1416V253.862H55.2658C56.2069 253.862 56.7581 253.351 56.7581 252.585C56.7581 251.818 56.18 251.308 55.1582 251.308ZM64.3351 252.276V248.094H66.056V255.301H64.3351V254.333C63.8646 255.126 63.1251 255.502 62.2378 255.502C60.8127 255.502 59.8581 254.642 59.8581 252.907V248.094H61.579V252.558C61.579 253.539 61.9823 254.077 62.8293 254.077C63.757 254.077 64.3351 253.244 64.3351 252.276ZM70.3461 255.502C68.4639 255.502 67.3077 254.064 67.3077 251.711C67.3077 249.264 68.4908 247.893 70.3461 247.893C71.1394 247.893 71.7981 248.229 72.2418 248.874V245.621H73.9627V255.301H72.2418V254.48C71.7847 255.139 71.1394 255.502 70.3461 255.502ZM70.6554 254.077C71.6906 254.077 72.2418 253.244 72.2418 251.711C72.2418 250.178 71.6637 249.318 70.6554 249.318C69.6336 249.318 69.0824 250.165 69.0824 251.711C69.0824 253.23 69.647 254.077 70.6554 254.077ZM78.1562 255.327C76.3278 255.327 75.1984 253.916 75.1984 251.617C75.1984 249.224 76.3547 247.893 78.1562 247.893C79.0167 247.893 79.6889 248.215 80.1325 248.82V248.094H81.8534V255.529C81.8534 257.479 80.509 258.473 78.7209 258.473C76.9462 258.473 75.6555 257.653 75.4001 255.946H77.1344C77.242 256.712 77.8604 257.116 78.694 257.116C79.5544 257.116 80.1325 256.699 80.1325 255.556V254.346C79.662 254.991 78.9898 255.327 78.1562 255.327ZM78.5461 253.902C79.5813 253.902 80.1325 253.096 80.1325 251.617C80.1325 250.151 79.5544 249.318 78.5461 249.318C77.5243 249.318 76.9731 250.124 76.9731 251.617C76.9731 253.082 77.5243 253.902 78.5461 253.902ZM90.0127 252.948C89.6229 254.615 88.3322 255.502 86.6113 255.502C84.4333 255.502 83.1023 254.064 83.1023 251.711C83.1023 249.264 84.4467 247.893 86.5441 247.893C88.6549 247.893 89.959 249.318 89.959 251.644V252.047H84.877C84.9576 253.365 85.5626 254.091 86.6113 254.091C87.418 254.091 87.9692 253.714 88.1977 252.948H90.0127ZM86.5441 249.304C85.6299 249.304 85.0786 249.882 84.9173 250.971H88.1574C87.9961 249.896 87.4449 249.304 86.5441 249.304ZM91.4789 253.055V249.425H90.5512V248.094H91.4789V246.441H93.1998V248.094H94.719V249.425H93.1998V252.907C93.1998 253.66 93.4149 254.064 94.3695 254.064H94.6921V255.327C94.5039 255.422 94.114 255.502 93.6435 255.502C92.178 255.502 91.4789 254.669 91.4789 253.055Z" fill="#262626"/>
<rect x="416.788" y="237.73" width="81.4136" height="26.142" rx="2.6142" stroke="#D0D5DD" stroke-width="0.746914"/>
<path d="M428.375 256.739V255.422C426.977 255.126 426.022 254.225 425.821 252.652H427.891C427.985 253.418 428.59 253.849 429.437 253.849C430.177 253.849 430.567 253.459 430.567 252.948C430.567 251.173 425.969 252.235 425.969 249.035C425.969 247.839 426.816 246.75 428.375 246.494V245.217H430.109V246.562C431.306 246.844 432.234 247.691 432.408 249.21H430.311C430.19 248.457 429.733 248.108 429.061 248.108C428.415 248.108 428.079 248.471 428.079 248.968C428.079 250.608 432.664 249.667 432.664 252.746C432.664 254.252 431.615 255.233 430.109 255.462V256.739H428.375ZM434.562 255.314V253.741H436.148V248.995H434.562V247.503H435.18C436.215 247.503 436.511 247.261 436.511 246.763V246.656H438.313V253.741H439.913V255.314H434.562ZM447.276 255.516C445.057 255.516 443.767 253.822 443.767 250.985C443.767 248.108 445.071 246.441 447.276 246.441C449.48 246.441 450.785 248.135 450.785 250.985C450.785 253.862 449.467 255.516 447.276 255.516ZM447.276 253.808C448.176 253.808 448.674 252.813 448.674 250.985C448.674 249.156 448.176 248.148 447.276 248.148C446.361 248.148 445.864 249.143 445.864 250.985C445.864 252.786 446.375 253.808 447.276 253.808ZM455.022 255.516C452.804 255.516 451.513 253.822 451.513 250.985C451.513 248.108 452.817 246.441 455.022 246.441C457.227 246.441 458.531 248.135 458.531 250.985C458.531 253.862 457.213 255.516 455.022 255.516ZM455.022 253.808C455.923 253.808 456.42 252.813 456.42 250.985C456.42 249.156 455.923 248.148 455.022 248.148C454.108 248.148 453.61 249.143 453.61 250.985C453.61 252.786 454.121 253.808 455.022 253.808ZM462.768 255.516C460.55 255.516 459.259 253.822 459.259 250.985C459.259 248.108 460.563 246.441 462.768 246.441C464.973 246.441 466.277 248.135 466.277 250.985C466.277 253.862 464.96 255.516 462.768 255.516ZM462.768 253.808C463.669 253.808 464.166 252.813 464.166 250.985C464.166 249.156 463.669 248.148 462.768 248.148C461.854 248.148 461.356 249.143 461.356 250.985C461.356 252.786 461.867 253.808 462.768 253.808Z" fill="url(#paint0_linear_942_6257)"/>
<path d="M52.9459 305.493V304.458C51.827 304.28 51.0846 303.622 50.9068 302.45H51.8374C51.9525 303.266 52.6217 303.705 53.5733 303.705C54.5144 303.705 55.0163 303.235 55.0163 302.576C55.0163 300.704 51.0846 302.022 51.0846 299.376C51.0846 298.508 51.7224 297.693 52.9459 297.546V296.532H53.887V297.567C54.8804 297.734 55.6228 298.351 55.7587 299.533H54.8281C54.7026 298.686 54.1379 298.32 53.2909 298.32C52.4649 298.32 52.0257 298.759 52.0257 299.408C52.0257 301.112 55.9574 299.889 55.9574 302.492C55.9574 303.674 55.0895 304.385 53.887 304.49V305.493H52.9459ZM61.8464 302.137C61.8464 303.517 60.9889 304.5 59.3472 304.5C57.8414 304.5 56.9422 303.747 56.7644 302.482H57.6846C57.7996 303.235 58.3434 303.705 59.3368 303.705C60.3929 303.705 60.9262 303.12 60.9262 302.147C60.9262 301.363 60.5498 300.547 59.3368 300.547C58.542 300.547 58.1029 300.882 57.8519 301.258L57.0258 301.175L57.2349 297.651H61.5327V298.383H57.9669L57.8519 300.286C58.2388 299.972 58.7198 299.753 59.41 299.753C61.1876 299.753 61.8464 300.882 61.8464 302.137ZM65.0689 304.5C63.4063 304.5 62.4442 303.203 62.4442 301.018C62.4442 298.77 63.4272 297.525 65.0689 297.525C66.7211 297.525 67.6831 298.822 67.6831 301.018C67.6831 303.266 66.7001 304.5 65.0689 304.5ZM65.0689 303.705C66.1459 303.705 66.742 302.743 66.742 301.018C66.742 299.303 66.1355 298.32 65.0689 298.32C63.9814 298.32 63.3853 299.272 63.3853 301.018C63.3853 302.712 63.9918 303.705 65.0689 303.705Z" fill="#898989"/>
<path d="M464.094 305.493V304.458C462.975 304.28 462.233 303.622 462.055 302.45H462.986C463.101 303.266 463.77 303.705 464.722 303.705C465.663 303.705 466.165 303.235 466.165 302.576C466.165 300.704 462.233 302.022 462.233 299.376C462.233 298.508 462.871 297.693 464.094 297.546V296.532H465.035V297.567C466.029 297.734 466.771 298.351 466.907 299.533H465.977C465.851 298.686 465.286 298.32 464.439 298.32C463.613 298.32 463.174 298.759 463.174 299.408C463.174 301.112 467.106 299.889 467.106 302.492C467.106 303.674 466.238 304.385 465.035 304.49V305.493H464.094ZM468.038 304.375V304.124C468.038 301.102 471.761 301.352 471.761 299.543C471.761 298.78 471.311 298.32 470.475 298.32C469.555 298.32 469.105 298.791 468.979 299.564H468.028C468.206 298.299 469.053 297.525 470.485 297.525C471.949 297.525 472.702 298.393 472.702 299.533C472.702 301.708 469.377 301.687 468.99 303.643H472.775V304.375H468.038ZM476.217 304.5C474.555 304.5 473.593 303.203 473.593 301.018C473.593 298.77 474.576 297.525 476.217 297.525C477.869 297.525 478.832 298.822 478.832 301.018C478.832 303.266 477.849 304.5 476.217 304.5ZM476.217 303.705C477.294 303.705 477.89 302.743 477.89 301.018C477.89 299.303 477.284 298.32 476.217 298.32C475.13 298.32 474.534 299.272 474.534 301.018C474.534 302.712 475.14 303.705 476.217 303.705ZM483.917 304.5C482.255 304.5 481.293 303.203 481.293 301.018C481.293 298.77 482.276 297.525 483.917 297.525C485.57 297.525 486.532 298.822 486.532 301.018C486.532 303.266 485.549 304.5 483.917 304.5ZM483.917 303.705C484.994 303.705 485.59 302.743 485.59 301.018C485.59 299.303 484.984 298.32 483.917 298.32C482.83 298.32 482.234 299.272 482.234 301.018C482.234 302.712 482.84 303.705 483.917 303.705ZM489.733 304.5C488.071 304.5 487.108 303.203 487.108 301.018C487.108 298.77 488.091 297.525 489.733 297.525C491.385 297.525 492.347 298.822 492.347 301.018C492.347 303.266 491.364 304.5 489.733 304.5ZM489.733 303.705C490.81 303.705 491.406 302.743 491.406 301.018C491.406 299.303 490.8 298.32 489.733 298.32C488.646 298.32 488.05 299.272 488.05 301.018C488.05 302.712 488.656 303.705 489.733 303.705ZM495.549 304.5C493.886 304.5 492.924 303.203 492.924 301.018C492.924 298.77 493.907 297.525 495.549 297.525C497.201 297.525 498.163 298.822 498.163 301.018C498.163 303.266 497.18 304.5 495.549 304.5ZM495.549 303.705C496.626 303.705 497.222 302.743 497.222 301.018C497.222 299.303 496.615 298.32 495.549 298.32C494.461 298.32 493.865 299.272 493.865 301.018C493.865 302.712 494.472 303.705 495.549 303.705Z" fill="#898989"/>
<rect x="50.4258" y="283.665" width="448.148" height="5.97531" rx="2.98765" fill="#E7E7E7"/>
<rect x="50.4258" y="283.665" width="122.494" height="5.97531" rx="2.98765" fill="#262626"/>
<circle cx="171.426" cy="286.652" r="7.46914" fill="#E7E7E7" stroke="#262626" stroke-width="2.98765"/>
</g>
</g>
<defs>
<filter id="filter0_d_942_6257" x="-17.5" y="173.43" width="584" height="205.315" filterUnits="userSpaceOnUse" color-interpolation-filters="sRGB">
<feFlood flood-opacity="0" result="BackgroundImageFix"/>
<feColorMatrix in="SourceAlpha" type="matrix" values="0 0 0 0 0 0 0 0 0 0 0 0 0 0 0 0 0 0 127 0" result="hardAlpha"/>
<feOffset dy="4"/>
<feGaussianBlur stdDeviation="25"/>
<feComposite in2="hardAlpha" operator="out"/>
<feColorMatrix type="matrix" values="0 0 0 0 0 0 0 0 0 0 0 0 0 0 0 0 0 0 0.1 0"/>
<feBlend mode="normal" in2="BackgroundImageFix" result="effect1_dropShadow_942_6257"/>
<feBlend mode="normal" in="SourceGraphic" in2="effect1_dropShadow_942_6257" result="shape"/>
</filter>
<linearGradient id="paint0_linear_942_6257" x1="425.377" y1="250.801" x2="467.377" y2="250.801" gradientUnits="userSpaceOnUse">
<stop stopColor="#F11F68"/>
<stop offset="1" stopColor="#162ABF"/>
</linearGradient>
<clipPath id="clip0_942_6257">
<rect width="549" height="420" rx="16" fill="white"/>
</clipPath>
<clipPath id="clip1_942_6257">
<rect x="61" y="66" width="427" height="305" rx="14.3553" fill="white"/>
</clipPath>
</defs>
</svg>
