<svg width="144" height="24" viewBox="0 0 144 24" fill="none" xmlns="http://www.w3.org/2000/svg">
<g clip-path="url(#clip0_251_14541)">
<path d="M86.834 14.6412C88.1087 14.6412 89.1856 13.5643 89.1856 12.2676C89.1856 10.9709 88.1087 9.89404 86.834 9.89404C85.5593 9.89404 84.4824 10.9709 84.4824 12.2676C84.4824 13.5643 85.5593 14.6412 86.834 14.6412Z" fill="#C09C7C"/>
<path d="M132.043 5.32278C130.175 5.32278 128.966 6.00409 128.241 7.05901C127.515 5.96013 126.351 5.32278 124.812 5.32278C123.054 5.32278 121.911 6.00408 121.296 6.90517V5.6964H117.362V18.861H121.296V11.4326C121.296 9.87215 122.021 8.94908 123.34 8.94908C124.592 8.94908 125.23 9.78424 125.23 11.1029V18.839H129.164V11.4106C129.164 9.85017 129.889 8.92711 131.208 8.92711C132.46 8.92711 133.098 9.76226 133.098 11.0809V18.817H137.032V10.7293C137.032 7.49856 135.054 5.32278 132.043 5.32278ZM109.23 15.3885C107.516 15.3885 106.219 14.1578 106.219 12.2897C106.219 10.4216 107.538 9.19084 109.23 9.19084C110.944 9.19084 112.241 10.4216 112.241 12.2897C112.241 14.1578 110.944 15.3885 109.23 15.3885ZM109.23 5.32278C105.384 5.32278 102.285 8.35569 102.285 12.2677C102.285 16.1797 105.384 19.2126 109.23 19.2126C113.076 19.2126 116.175 16.1797 116.175 12.2677C116.175 8.35569 113.098 5.32278 109.23 5.32278ZM96.7028 15.3446C94.9886 15.3446 93.7358 14.1138 93.7358 12.2897C93.7358 10.4655 94.9886 9.2348 96.7028 9.2348C97.8457 9.2348 98.7907 9.78423 99.2522 10.7073L102.681 8.70733C101.56 6.68539 99.2962 5.34475 96.7468 5.34475C92.7688 5.34475 89.8019 8.37767 89.8019 12.2897C89.8019 16.2017 92.7688 19.2346 96.7468 19.2346C99.3182 19.2346 101.538 17.894 102.681 15.8281L99.2522 13.8501C98.8127 14.7732 97.8457 15.3446 96.7028 15.3446ZM70.5495 15.4984C68.7473 15.4984 67.4286 14.2677 67.4286 12.2897C67.4286 10.3117 68.7473 9.08095 70.5495 9.08095C72.3516 9.08095 73.6703 10.3117 73.6703 12.2897C73.6703 14.2457 72.3736 15.4984 70.5495 15.4984ZM73.6703 6.92715C72.8131 5.91618 71.5165 5.32278 69.7583 5.32278C66.3297 5.32278 63.4946 8.35569 63.4946 12.2677C63.4946 16.1797 66.3297 19.2126 69.7583 19.2126C71.5165 19.2126 72.7912 18.5973 73.6703 17.6083V18.839H77.6043V5.67442H73.6703V6.92715ZM60.5277 2.00416L56.5937 3.19095V5.6964H54.5058V9.49852H56.5937V14.1578C56.5937 17.85 58.0881 19.3885 63.2309 18.861V15.2786C61.4947 15.3885 60.5277 15.2786 60.5277 14.1358V9.47655H63.2309V5.67442H60.5277V2.00416ZM49.4729 18.861H53.4069V5.6964H49.4729V18.861ZM79.4504 18.861H83.3844V-0.193604L79.4504 1.01517V18.861ZM41.2533 15.4984C39.4511 15.4984 38.1325 14.2677 38.1325 12.2897C38.1325 10.3117 39.4511 9.08095 41.2533 9.08095C43.0554 9.08095 44.3741 10.3117 44.3741 12.2897C44.3741 14.2457 43.0554 15.4984 41.2533 15.4984ZM42.0445 5.32278C40.2863 5.32278 39.0116 5.91618 38.1325 6.92715V5.6964H34.1985V24.1356H38.1325V17.6302C38.9896 18.6412 40.2863 19.2346 42.0445 19.2346C45.473 19.2346 48.3081 16.2017 48.3081 12.2897C48.3081 8.35569 45.473 5.32278 42.0445 5.32278ZM25.2975 15.4984C23.4954 15.4984 22.1767 14.2677 22.1767 12.2897C22.1767 10.3117 23.4954 9.08095 25.2975 9.08095C27.0997 9.08095 28.4183 10.3117 28.4183 12.2897C28.4183 14.2457 27.1217 15.4984 25.2975 15.4984ZM28.4183 6.92715C27.5612 5.91618 26.2645 5.32278 24.5063 5.32278C21.0778 5.32278 18.2427 8.35569 18.2427 12.2677C18.2427 16.1797 21.0778 19.2126 24.5063 19.2126C26.2645 19.2126 27.5392 18.5973 28.4183 17.6083V18.839H32.3523V5.67442H28.4183V6.92715ZM12.067 9.2348C13.2098 9.2348 14.1549 9.78423 14.6164 10.7073L18.0449 8.70733C16.924 6.68539 14.6603 5.34475 12.1109 5.34475C8.133 5.34475 5.16602 8.37767 5.16602 12.2897C5.16602 16.2017 8.133 19.2346 12.1109 19.2346C14.6823 19.2346 16.9021 17.894 18.0449 15.8281L14.6164 13.8501C14.1988 14.7732 13.2318 15.3226 12.067 15.3226C10.3527 15.3226 9.10001 14.0918 9.10001 12.2677C9.10001 10.4436 10.3527 9.2348 12.067 9.2348ZM51.4949 4.7074C52.7696 4.7074 53.8465 3.6305 53.8465 2.33382C53.8465 1.03714 52.7696 -0.0397642 51.4949 -0.0397642C50.2201 -0.0397642 49.1432 1.03714 49.1432 2.33382C49.1432 3.6305 50.2201 4.7074 51.4949 4.7074Z" fill="black"/>
</g>
<defs>
<clipPath id="clip0_251_14541">
<rect width="143.294" height="24" fill="white" transform="translate(0.352539)"/>
</clipPath>
</defs>
</svg>
