<svg width="70" height="30" viewBox="0 0 70 30" fill="none" xmlns="http://www.w3.org/2000/svg">
<g clip-path="url(#clip0_251_14537)">
<path d="M27.8396 29.9848C25.4871 29.8583 23.7316 28.8903 22.705 27.1535C22.0162 25.9875 21.8066 24.4541 22.1217 22.8872C22.4709 21.1511 23.6565 19.5867 25.476 18.4614C26.5216 17.8143 27.4166 17.4127 29.2389 16.7722C29.6971 16.6112 30.0925 16.4629 30.118 16.4422C30.1546 16.4133 30.1597 16.3106 30.1415 15.9772C30.0891 15.0288 30.2473 13.5512 30.5152 12.4849C30.9657 10.6905 31.8328 9.24295 32.9835 8.36489C33.8095 7.73401 34.8924 7.25964 35.9704 7.05624C36.5658 6.9442 37.5628 6.94454 38.123 7.05727C40.5234 7.5406 41.8707 9.39085 41.3401 11.4755C41.2284 11.9151 40.8754 12.6356 40.5765 13.0341C39.8108 14.0552 38.6591 14.9633 37.0326 15.8272C36.8281 15.9362 36.1586 16.2651 35.5453 16.5588C34.932 16.8521 34.4111 17.1117 34.387 17.1359C34.3529 17.17 34.3615 17.2696 34.4277 17.6047C34.7328 19.154 35.2457 20.463 36.1217 21.9268C36.4699 22.5094 36.9515 23.2441 37.0063 23.2782C37.0856 23.3271 37.4097 22.8035 37.621 22.2853C37.8823 21.6441 38.032 20.796 37.9582 20.3747C37.9051 20.0731 37.7403 19.7546 37.53 19.5487C37.4335 19.4536 37.3535 19.3636 37.3532 19.3488C37.3528 19.3343 38.1692 19.326 39.1679 19.3312L40.9837 19.3405L40.9733 19.5708C40.9592 19.8856 40.8423 20.5568 40.7192 21.0346C40.3721 22.3781 39.7178 23.5271 38.5867 24.782C38.4532 24.9299 38.344 25.075 38.344 25.1046C38.344 25.1343 38.5315 25.3401 38.7604 25.5621C40.1901 26.948 42.7225 28.5462 44.7845 29.3636C44.9848 29.4433 45.1482 29.5243 45.1475 29.5436C45.1468 29.567 43.9564 29.5822 41.6687 29.5884L38.1909 29.5973L37.993 29.486C37.589 29.2588 36.6944 28.5359 35.8349 27.7416C35.6529 27.5734 35.4805 27.4358 35.4519 27.4358C35.4233 27.4358 35.2209 27.5534 35.003 27.6971C33.8864 28.4335 32.5519 29.0951 31.4232 29.4715C30.1394 29.9 29.0796 30.0514 27.8396 29.9848ZM30.7679 26.9718C31.2884 26.879 31.9279 26.6901 32.5161 26.4553C33.1073 26.2195 33.8402 25.8589 33.8664 25.7907C33.8768 25.7638 33.7413 25.5373 33.5658 25.287C32.7567 24.1342 31.8924 22.5129 31.3115 21.0587C31.0974 20.5226 30.6975 19.3353 30.621 19.0099C30.5969 18.9061 30.5531 18.812 30.5238 18.8006C30.4428 18.7696 29.7784 19.1237 29.2044 19.5043C27.1642 20.8567 26.1862 22.5077 26.4034 24.2328C26.4999 24.9995 26.7426 25.5583 27.1842 26.0303C28.0006 26.9025 29.2768 27.2379 30.7679 26.9718ZM34.2308 14.9761C34.9858 14.5341 36.1834 13.4609 36.8533 12.6266C37.7107 11.5589 38.1664 10.5626 38.1668 9.75455C38.1668 9.2926 38.1013 9.08575 37.8875 8.87201C37.6748 8.65965 37.4349 8.57174 37.0684 8.57139C35.9811 8.57139 34.8052 9.86211 34.2929 11.6182C34.0343 12.5035 33.9716 12.98 33.9698 14.0614C33.9685 14.8875 33.9819 15.0712 34.044 15.0712C34.0574 15.0712 34.1415 15.0285 34.2308 14.9761ZM52.2137 29.9642C50.4221 29.7839 49.2413 29.516 47.9092 28.9885C46.0966 28.2701 44.9648 27.3803 44.0088 25.9224C43.7227 25.4859 43.2635 24.5696 43.078 24.0632C42.2489 21.8068 42.0669 18.9661 42.5609 16.0027C43.0611 13.0034 44.2005 10.1127 45.7725 7.85329C46.7923 6.38812 48.3095 4.84505 49.8757 3.67981C52.4619 1.75614 55.4388 0.573665 58.7459 0.157904C59.7491 0.0317272 60.3111 -0.000678783 61.496 1.07056e-05C63.2883 0.00104494 64.6535 0.137564 66.4561 0.495753C67.6062 0.724663 69.4382 1.21903 69.4733 1.31038C69.4913 1.35658 68.3305 5.07672 68.2826 5.1267C68.2678 5.14222 68.0895 5.02328 67.8872 4.86125C66.2569 3.56156 64.5673 2.77038 62.8587 2.50734C62.313 2.42322 61.2874 2.42218 60.7523 2.50527C58.3571 2.87621 56.1362 4.40653 54.1646 7.04486C53.5241 7.9019 52.8184 9.05058 52.2696 10.1289C51.5259 11.5907 51.0147 12.8828 50.4976 14.6106C48.8504 20.1079 48.767 23.9487 50.2494 26.0279C50.8599 26.8846 51.7524 27.4303 52.8849 27.6389C53.5351 27.7588 55.1134 27.6861 55.2706 27.5292C55.2957 27.5044 56.0662 25.0936 56.9826 22.1719C58.4884 17.3727 58.6511 16.8315 58.6684 16.5595C58.6911 16.194 58.6232 15.8676 58.4588 15.5532C58.3095 15.2674 57.9151 14.8795 57.59 14.6992C57.4497 14.6213 57.3345 14.5455 57.3342 14.531C57.3339 14.5165 59.8601 14.5044 62.9487 14.5044C66.0369 14.5044 68.5639 14.5165 68.5636 14.531C68.5636 14.5455 68.4267 14.6203 68.2595 14.6965C67.3852 15.0964 66.7516 15.6955 66.3748 16.4795C66.2931 16.6491 65.5863 18.8444 64.5249 22.225L62.807 27.6961L62.3106 27.934C60.2887 28.9044 57.8151 29.6032 55.3478 29.9014C54.8944 29.9566 52.5933 30.0024 52.2141 29.9642H52.2137ZM0.526534 29.5643C0.515158 29.5463 0.589967 29.4832 0.692356 29.4243C1.30255 29.073 1.98756 28.3442 2.27784 27.7368C2.36195 27.5609 10.0646 3.02893 10.2345 2.39495C10.2645 2.28394 10.2897 2.04952 10.29 1.87439C10.2925 1.33934 10.1263 0.953574 9.735 0.583318C9.62813 0.482308 9.54091 0.384745 9.54091 0.366474C9.54091 0.317865 22.9911 0.322002 23.6079 0.370956C24.9434 0.476792 26.2803 0.831879 27.3028 1.35175C29.0486 2.23947 30.0939 3.58673 30.4152 5.3632C30.5048 5.85756 30.5221 6.9573 30.4486 7.48958C30.1494 9.6594 29.1662 11.9609 27.8275 13.626C25.6591 16.3233 22.1127 18.0481 17.7603 18.5224C16.3806 18.6727 14.6421 18.7107 13.411 18.6169C13.0552 18.5897 12.7567 18.5748 12.7477 18.5838C12.7039 18.6279 9.92702 27.5378 9.89531 27.7368C9.7974 28.3501 10.1132 29.0396 10.6575 29.4008C10.7651 29.4722 10.8437 29.5456 10.8327 29.5636C10.8051 29.608 0.553769 29.6084 0.52619 29.5639L0.526534 29.5643ZM15.7939 16.3306C16.805 16.1513 17.6972 15.7769 18.558 15.1712C18.9762 14.8771 19.8353 14.019 20.1897 13.5416C21.0764 12.3477 21.7287 10.9391 22.2547 9.08368C22.5898 7.90121 22.7326 7.00039 22.7322 6.07199C22.7322 5.3563 22.6674 4.92882 22.4874 4.44928C22.2203 3.73773 21.6763 3.17545 20.985 2.89621C20.3914 2.65627 19.8846 2.59318 18.6656 2.60731L17.7465 2.61765L15.6101 9.42015C14.4356 13.1617 13.4806 16.2409 13.4886 16.263C13.4969 16.285 13.6444 16.3223 13.8161 16.3457C13.9885 16.3692 14.1529 16.394 14.1822 16.4012C14.316 16.434 15.5067 16.3816 15.7939 16.3306Z" fill="#165EAA"/>
</g>
<defs>
<clipPath id="clip0_251_14537">
<rect width="68.9489" height="30" fill="white" transform="translate(0.525391)"/>
</clipPath>
</defs>
</svg>
