<svg width="90" height="20" viewBox="0 0 90 20" fill="none" xmlns="http://www.w3.org/2000/svg">
<g clip-path="url(#clip0_251_14564)">
<path d="M21.4928 19.1093L21.8251 18.7099C22.0557 18.901 22.2966 19.0211 22.5883 19.0211C22.8189 19.0211 22.9572 18.9295 22.9572 18.7802V18.773C22.9572 18.6306 22.8702 18.5574 22.4425 18.4473C21.9271 18.3164 21.5951 18.1735 21.5951 17.6653V17.6587C21.5951 17.1947 21.968 16.8877 22.49 16.8877C22.8627 16.8877 23.1803 17.0041 23.44 17.2122L23.1469 17.6359C22.9206 17.4791 22.6978 17.3846 22.482 17.3846C22.2669 17.3846 22.1534 17.4832 22.1534 17.6071V17.6143C22.1534 17.7829 22.2629 17.8374 22.7045 17.9507C23.2241 18.0861 23.5158 18.272 23.5158 18.7182V18.7249C23.5158 19.2333 23.1287 19.5175 22.5768 19.5175C22.1775 19.5189 21.7915 19.3736 21.4922 19.1093" fill="#005480"/>
<path d="M25.7785 16.9053H26.2973L27.3943 19.482H26.8063L26.5717 18.9084H25.4902L25.2568 19.482H24.6826L25.7785 16.9053ZM26.3708 18.411L26.0307 17.582L25.6905 18.411H26.3708Z" fill="#005480"/>
<path d="M30.3466 16.9243V17.4431H29.5684V19.482H29.0058V17.4431H28.2275V16.9243H30.3466Z" fill="#005480"/>
<path d="M32.2868 17.4246V17.9434H33.4933V18.444H32.2868V18.981H33.6755V19.4813H31.7285V16.9233H33.6567V17.424L32.2868 17.4246Z" fill="#005480"/>
<path d="M36.9634 18.9702V19.4818H35.126V16.9238H35.688V18.9702H36.9634Z" fill="#005480"/>
<path d="M41.5752 16.9243H42.1378V19.482H41.5752V16.9243Z" fill="#005480"/>
<path d="M67.152 16.8804C66.3623 16.8804 65.7893 17.477 65.7893 18.2045V18.2108C65.7893 18.938 66.3559 19.5257 67.1454 19.5257C67.9346 19.5257 68.5087 18.9302 68.5087 18.2039V18.1961C68.5087 17.4692 67.9409 16.8807 67.1523 16.8807L67.152 16.8804ZM67.1463 17.3992C67.5996 17.3992 67.9201 17.7652 67.9201 18.2071C67.9201 18.6492 67.6054 19.0078 67.1526 19.0078C66.6989 19.0078 66.379 18.6423 66.379 18.1996C66.379 17.7569 66.6926 17.3992 67.1457 17.3992H67.1463ZM52.4902 16.9236V19.4816H53.0537V18.6631H53.4941L54.0432 19.4816H54.7004L54.0763 18.5679C54.4012 18.4469 54.6234 18.1886 54.6234 17.858C54.6234 17.5272 54.5473 17.3263 54.4043 17.1836C54.2372 17.0155 53.9841 16.9236 53.6587 16.9236H52.4902ZM53.0523 17.4332H53.6114C53.8858 17.4332 54.0536 17.5563 54.0536 17.7886C54.0536 18.0206 53.8951 18.1673 53.6221 18.1673H53.0514L53.0523 17.4332ZM59.917 16.9242V19.4822H60.9142C61.7184 19.4822 62.2741 18.9225 62.2741 18.199C62.2741 17.4756 61.7178 16.9239 60.9145 16.9239L59.917 16.9242ZM60.4807 17.4332H60.9145C61.3751 17.4332 61.6852 17.7502 61.6852 18.2068C61.6852 18.6636 61.3751 18.9735 60.9145 18.9735H60.4807V17.4332Z" fill="#005480"/>
<path d="M8.74034 12.8443C8.87513 13.0119 9.07088 13.1191 9.28464 13.1425C9.49841 13.1659 9.71272 13.1036 9.88056 12.9691C9.96356 12.9023 10.0326 12.8197 10.0836 12.7261C10.1347 12.6325 10.1669 12.5298 10.1782 12.4238C10.1896 12.3178 10.18 12.2107 10.1499 12.1084C10.1199 12.0061 10.07 11.9108 10.0031 11.8278C9.32574 10.9901 8.95822 9.94435 8.96256 8.86711C8.96256 7.79981 9.30844 6.79274 9.96559 5.95458C10.0974 5.78497 10.1568 5.57007 10.1306 5.35684C10.1045 5.14361 9.995 4.9494 9.82609 4.81666C9.7423 4.7508 9.64632 4.70214 9.54366 4.67348C9.44101 4.64482 9.3337 4.63672 9.22791 4.64966C9.12212 4.6626 9.01993 4.69631 8.9272 4.74886C8.83448 4.80141 8.75305 4.87176 8.6876 4.95588C7.80562 6.08111 7.341 7.43376 7.341 8.86711C7.341 10.3103 7.83819 11.7229 8.74063 12.8446L8.74034 12.8443ZM7.02712 2.84087C6.85561 2.71137 6.63973 2.65518 6.42684 2.68463C6.21395 2.71408 6.02143 2.82676 5.89151 2.99795C4.58988 4.7106 3.90102 6.75643 3.90102 8.91467C3.90102 11.0539 4.57835 13.0859 5.85981 14.791C5.98907 14.9626 6.18111 15.076 6.39382 15.1063C6.60653 15.1365 6.82256 15.0812 6.99455 14.9524C7.16623 14.8232 7.27957 14.6311 7.30967 14.4183C7.33978 14.2055 7.28418 13.9895 7.1551 13.8177C6.0875 12.3956 5.52229 10.7002 5.52229 8.91495C5.52229 7.11412 6.09586 5.40724 7.18104 3.97764C7.31103 3.80631 7.36777 3.59042 7.33881 3.37731C7.30984 3.16421 7.19755 2.97129 7.02655 2.84087H7.02712ZM2.22124 8.887C2.22124 6.3212 2.98331 3.85053 4.42732 1.74244C4.54886 1.56498 4.59493 1.3465 4.55539 1.13507C4.51585 0.923646 4.39394 0.736585 4.21648 0.615041C4.03902 0.493498 3.82055 0.447429 3.60912 0.486968C3.39769 0.526508 3.21063 0.648418 3.08909 0.825879C1.45945 3.20548 0.597656 5.99234 0.597656 8.88757C0.597656 11.7894 1.4632 14.5824 3.10177 16.9654C3.16201 17.0532 3.23898 17.1282 3.32826 17.1862C3.41755 17.2442 3.51739 17.2839 3.62207 17.3033C3.72676 17.3226 3.83423 17.3211 3.93833 17.2988C4.04243 17.2766 4.14112 17.234 4.22873 17.1735C4.31655 17.1133 4.39165 17.0364 4.44972 16.9472C4.50779 16.8579 4.5477 16.7581 4.56716 16.6535C4.58662 16.5488 4.58526 16.4413 4.56314 16.3372C4.54102 16.233 4.49859 16.1343 4.43827 16.0465C2.98648 13.9359 2.22181 11.4597 2.22181 8.887H2.22124ZM80.1248 12.9691C80.2927 13.1037 80.5071 13.1661 80.721 13.1427C80.9349 13.1193 81.1308 13.012 81.2656 12.8443C82.1699 11.7157 82.6632 10.313 82.6644 8.86682C82.6644 7.43347 82.1992 6.08082 81.3189 4.95559C81.2534 4.87153 81.1719 4.80123 81.0791 4.74871C80.9864 4.69619 80.8841 4.66249 80.7783 4.64953C80.6725 4.63657 80.5652 4.64461 80.4625 4.67319C80.3598 4.70177 80.2638 4.75033 80.1799 4.81609C80.0959 4.88167 80.0257 4.96318 79.9733 5.05593C79.9209 5.14869 79.8873 5.25087 79.8745 5.35663C79.8616 5.46239 79.8698 5.56964 79.8984 5.67225C79.9271 5.77485 79.9757 5.8708 80.0415 5.95458C80.6948 6.78438 81.0483 7.81072 81.0445 8.86682C81.0445 9.95632 80.6834 10.9815 80.0026 11.8281C79.9356 11.911 79.8857 12.0064 79.8556 12.1087C79.8256 12.2109 79.8159 12.3181 79.8273 12.4241C79.8387 12.5301 79.8708 12.6329 79.9219 12.7264C79.973 12.82 80.0421 12.9026 80.1251 12.9694M83.0102 14.9524C83.1824 15.0812 83.3986 15.1365 83.6114 15.1062C83.8242 15.076 84.0164 14.9626 84.1459 14.791C85.4273 13.0862 86.1041 11.0527 86.1041 8.91409C86.1041 6.75614 85.4166 4.70973 84.1153 2.99767C83.9854 2.82647 83.7929 2.71379 83.58 2.68434C83.3671 2.65489 83.1512 2.71108 82.9797 2.84058C82.8948 2.90496 82.8234 2.98544 82.7696 3.07741C82.7158 3.16938 82.6807 3.27105 82.6661 3.37661C82.6516 3.48217 82.6581 3.58955 82.6851 3.69263C82.7121 3.7957 82.7591 3.89245 82.8235 3.97735C83.9095 5.40695 84.4831 7.11383 84.4831 8.91467C84.4831 10.6988 83.9199 12.395 82.8503 13.8174C82.7862 13.9024 82.7395 13.9992 82.7129 14.1023C82.6862 14.2054 82.6802 14.3127 82.6951 14.4181C82.71 14.5236 82.7455 14.625 82.7996 14.7167C82.8537 14.8084 82.9251 14.8885 83.0102 14.9524ZM85.5786 1.74302C87.0218 3.85082 87.7844 6.32178 87.7844 8.88671C87.7844 11.4594 87.0172 13.9364 85.568 16.0463C85.5076 16.1339 85.4651 16.2327 85.443 16.3368C85.4208 16.4409 85.4194 16.5484 85.4388 16.6531C85.4582 16.7577 85.4981 16.8575 85.5561 16.9468C85.6141 17.036 85.6892 17.113 85.7769 17.1732C85.8645 17.2337 85.9632 17.2764 86.0672 17.2987C86.1713 17.3211 86.2788 17.3226 86.3835 17.3034C86.4882 17.2841 86.588 17.2443 86.6773 17.1864C86.7666 17.1284 86.8436 17.0534 86.9039 16.9657C88.539 14.5821 89.4045 11.7891 89.4045 8.88671C89.4045 5.99291 88.5436 3.2049 86.9148 0.825591C86.7924 0.650456 86.6057 0.530783 86.3954 0.492617C86.1851 0.454451 85.9683 0.50088 85.7921 0.621801C85.6159 0.742722 85.4945 0.928346 85.4545 1.13828C85.4145 1.34821 85.459 1.56545 85.5783 1.74273" fill="#00ADEE"/>
<path d="M16.3451 3.94227C14.3967 3.94227 11.9116 4.63978 11.9116 7.03609C11.9116 10.6649 17.6508 9.46757 17.6508 10.9698C17.6508 11.6319 17.0426 11.8097 16.4708 11.8097C16.1134 11.8097 15.7911 11.7031 15.5583 11.5238C15.3084 11.3278 15.1654 11.041 15.1654 10.6649H11.626C11.822 13.186 14.1817 13.8475 16.327 13.8475C19.7606 13.8475 21.3695 12.5254 21.3695 10.5761C21.3695 7.07068 15.4522 7.94747 15.4522 6.64238C15.4522 6.17747 15.8626 5.9809 16.5062 5.9809C16.7916 5.9809 17.0596 6.0518 17.2571 6.21263C17.4536 6.37346 17.5787 6.58819 17.615 6.89284H20.9945C20.7795 4.40689 18.384 3.94141 16.3454 3.94141L16.3451 3.94227ZM69.056 3.94371C67.7151 3.94371 66.8695 4.89025 66.4043 5.60534V4.2109H62.9888V13.58H66.7078V8.94819C66.7078 7.82266 66.7337 6.8499 67.7555 6.87584C68.7464 6.90178 68.8277 7.42923 68.8277 8.80609V13.58H72.5458V8.94905C72.5458 7.82295 72.5372 6.88103 73.5834 6.87757C74.5669 6.87469 74.6571 7.42866 74.6571 8.8058V13.5797H78.3752V8.0371C78.3752 5.48054 77.2151 3.94429 74.8574 3.94429C73.5013 3.94429 72.7966 4.53227 71.9916 5.65837C71.5442 4.65707 70.6066 3.94342 69.056 3.94342V3.94371Z" fill="#005480"/>
<path d="M21.9961 3.95752V5.40038H25.0167V3.95752H21.9961ZM21.9961 6.02064V13.6304H25.0167V6.02064H21.9961Z" fill="#005480"/>
<path d="M30.9283 5.80176C29.7517 5.80176 29.011 6.36956 28.5908 7.55936H28.5605V6.02023H25.8154V13.63H28.8375V11.0014C28.8369 9.36049 29.4621 8.77971 30.696 8.77971C30.8989 8.77971 31.1174 8.83736 31.3203 8.86618V5.84614C31.19 5.83289 31.0586 5.80233 30.9283 5.80233V5.80176ZM48.1573 5.80291C46.5744 5.80291 44.555 6.36928 44.555 8.31538C44.555 11.2639 49.2177 10.2912 49.2177 11.5107C49.2177 12.0479 48.7231 12.1929 48.2588 12.1929C47.9682 12.1929 47.7071 12.1058 47.518 11.9603C47.3151 11.8006 47.1989 11.5677 47.1989 11.2639H44.3233C44.4824 13.3121 46.4003 13.8485 48.1423 13.8485C50.9315 13.8485 52.238 12.7742 52.238 11.191C52.238 8.3442 47.431 9.05612 47.431 7.99631C47.431 7.61874 47.7644 7.45906 48.2884 7.45906C48.5196 7.45906 48.7375 7.51757 48.8966 7.64727C49.0574 7.77813 49.1589 7.95222 49.1886 8.19865H51.9334C51.7581 6.18049 49.8132 5.80262 48.1567 5.80262L48.1573 5.80291ZM35.7261 6.02023V10.6532C35.7261 12.8322 36.7997 13.8479 38.4556 13.8479C39.7048 13.8479 40.4449 13.5574 41.2004 12.5117V13.63H44.0028V6.02023H40.9822V9.67956C40.9822 10.8555 40.7061 11.5098 39.8351 11.5098C39.1087 11.5098 38.7456 11.176 38.7456 10.1309V6.02023H35.7261Z" fill="#005480"/>
<path d="M56.2121 4.21094L57.3927 6.55364L58.6444 4.21094H62.7208L59.5201 8.66317L62.7569 13.5803H58.6084L57.2849 10.8978L55.9265 13.5803H51.8135L55.1753 8.68047L52.0818 4.21094H56.2121Z" fill="#005480"/>
<path d="M77.8549 3.18896V3.35556H77.5309V4.21159H77.3499V3.35556H77.0254V3.18896H77.8549ZM78.8591 3.18896H79.0502V4.21159H78.8709V3.47806L78.5481 3.95997H78.5423L78.2224 3.48094V4.21159H78.0454V3.18896H78.2365L78.5478 3.67203L78.8591 3.18896Z" fill="#005480"/>
<path d="M31.9639 3.95752V5.40038H34.9845V3.95752H31.9639ZM31.9639 6.02064V13.6304H34.9845V6.02064H31.9639Z" fill="#005480"/>
<path d="M40.1753 18.9702V19.4818H38.3379V16.9238H38.8999V18.9702H40.1753Z" fill="#005480"/>
<path d="M45.664 16.9243V17.4431H44.8858V19.482H44.3231V17.4431H43.5449V16.9243H45.664Z" fill="#005480"/>
<path d="M47.6032 17.4246V17.9434H48.8097V18.444H47.6032V18.981H48.9919V19.4813H47.0449V16.9233H48.9732V17.424L47.6032 17.4246Z" fill="#005480"/>
<path d="M56.9572 16.9053H57.476L58.573 19.482H57.985L57.7504 18.9084H56.6689L56.4355 19.482H55.8613L56.9572 16.9053ZM57.5495 18.411L57.2094 17.582L56.8693 18.411H57.5495Z" fill="#005480"/>
<path d="M63.75 16.9243H64.3126V19.482H63.75V16.9243Z" fill="#005480"/>
</g>
<defs>
<clipPath id="clip0_251_14564">
<rect width="88.8075" height="19.0526" fill="white" transform="translate(0.59668 0.473633)"/>
</clipPath>
</defs>
</svg>
