<svg width="80" height="36" viewBox="0 0 80 36" fill="none" xmlns="http://www.w3.org/2000/svg">
<g clip-path="url(#clip0_251_14566)">
<path d="M15.7389 16.7273V18.3182C15.7389 18.4773 15.5798 18.6364 15.4207 18.6364H13.4321C13.3525 18.6364 13.273 18.7159 13.273 18.7955V27.2273C13.273 27.3864 13.1139 27.5455 12.9548 27.5455H11.3639C11.2048 27.5455 11.0457 27.3864 11.0457 27.2273V18.7955C11.0457 18.7159 10.9662 18.6364 10.8866 18.6364H8.89799C8.7389 18.6364 8.57981 18.4773 8.57981 18.3182V16.7273C8.57981 16.5682 8.7389 16.4091 8.89799 16.4091H15.4207C15.5798 16.4091 15.7389 16.5682 15.7389 16.7273ZM24.4889 16.4091H22.898C22.7389 16.4091 22.5798 16.5682 22.5798 16.7273V24.2045C22.5798 24.9205 22.023 25.4773 21.0287 25.4773C20.0741 25.4773 19.5173 24.9205 19.5173 24.2045V16.7273C19.5173 16.5682 19.3582 16.4091 19.1991 16.4091H17.6082C17.4491 16.4091 17.29 16.5682 17.29 16.7273V24.2045C17.29 26.1136 18.8809 27.7045 21.0287 27.7045C23.2162 27.7045 24.8071 26.1136 24.8071 24.2045V16.7273C24.8071 16.5682 24.648 16.4091 24.4889 16.4091ZM33.4775 16.4091H31.8866C31.7275 16.4091 31.5685 16.5682 31.5685 16.7273V22.6932C31.5685 22.7727 31.4491 22.8125 31.4094 22.733L29.2219 16.6875C29.1821 16.5284 29.0628 16.4091 28.8241 16.4091H26.915C26.7559 16.4091 26.5969 16.5682 26.5969 16.7273V27.2273C26.5969 27.3864 26.7559 27.5455 26.915 27.5455H28.5059C28.665 27.5455 28.8241 27.3864 28.8241 27.2273V21.7386C28.8241 21.6591 28.9434 21.6193 28.9832 21.6989L31.1309 27.267C31.1707 27.3864 31.29 27.5455 31.5685 27.5455H33.4378C33.5969 27.5455 33.756 27.3864 33.756 27.2273V16.7273C33.7957 16.5682 33.6366 16.4091 33.4775 16.4091ZM41.7105 25.3182H37.9321C37.8525 25.3182 37.773 25.2386 37.773 25.1591V23.25C37.773 23.1705 37.8525 23.0909 37.9321 23.0909H41.5116C41.6707 23.0909 41.8298 22.9318 41.8298 22.7727V21.1818C41.8298 21.0227 41.6707 20.8636 41.5116 20.8636H37.9321C37.8525 20.8636 37.773 20.7841 37.773 20.7045V18.7955C37.773 18.7159 37.8525 18.6364 37.9321 18.6364H41.631C41.79 18.6364 41.9491 18.4773 41.9491 18.3182V16.7273C41.9491 16.5682 41.79 16.4091 41.631 16.4091H35.8639C35.7048 16.4091 35.5457 16.5682 35.5457 16.7273V27.2273C35.5457 27.3864 35.7048 27.5455 35.8639 27.5455H41.7105C41.8696 27.5455 42.0287 27.3864 42.0287 27.2273V25.6364C42.0287 25.4773 41.8696 25.3182 41.7105 25.3182ZM79.773 1.69318V26.3523C79.773 27.0284 79.256 27.5455 78.5798 27.5455H51.1366V34.3068C51.1366 34.983 50.6196 35.5 49.9435 35.5H1.42072C0.744585 35.5 0.227539 34.983 0.227539 34.3068V9.64773C0.227539 8.97159 0.744585 8.45455 1.42072 8.45455H48.7503V1.69318C48.7503 1.01705 49.2673 0.5 49.9435 0.5H78.5798C79.256 0.5 79.773 1.01705 79.773 1.69318ZM48.7503 10.8409H2.81277C2.69345 10.8409 2.6139 10.9205 2.6139 11.0398V32.9148C2.6139 33.0341 2.69345 33.1136 2.81277 33.1136H48.5514C48.6707 33.1136 48.7503 33.0341 48.7503 32.9148V10.8409ZM62.9889 17.7614C62.9889 17.6023 62.8298 17.4432 62.6707 17.4432H61.3185C61.2389 17.4432 61.1594 17.3636 61.1594 17.2841V10.7614C61.1594 10.6818 61.2389 10.6023 61.3185 10.6023H62.5116C62.6707 10.6023 62.8298 10.4432 62.8298 10.2841V8.77273C62.8298 8.61364 62.6707 8.45455 62.5116 8.45455H57.5798C57.4207 8.45455 57.2616 8.61364 57.2616 8.77273V10.2841C57.2616 10.4432 57.4207 10.6023 57.5798 10.6023H58.773C58.8525 10.6023 58.9321 10.6818 58.9321 10.7614V17.2841C58.9321 17.3636 58.8525 17.4432 58.773 17.4432H57.4207C57.2616 17.4432 57.1025 17.6023 57.1025 17.7614V19.2727C57.1025 19.4318 57.2616 19.5909 57.4207 19.5909H62.6707C62.8298 19.5909 62.9889 19.4318 62.9889 19.2727V17.7614ZM71.898 8.77273C71.898 8.61364 71.7389 8.45455 71.5798 8.45455H69.9889C69.8298 8.45455 69.6707 8.61364 69.6707 8.77273V14.7386C69.6707 14.8182 69.5514 14.858 69.5116 14.7784L67.3241 8.73295C67.2844 8.57386 67.165 8.45455 66.9264 8.45455H65.0571C64.898 8.45455 64.7389 8.61364 64.7389 8.77273V19.2727C64.7389 19.4318 64.898 19.5909 65.0571 19.5909H66.648C66.8071 19.5909 66.9662 19.4318 66.9662 19.2727V13.7841C66.9662 13.7045 67.0855 13.6648 67.1253 13.7443L69.273 19.3125C69.3128 19.4318 69.4321 19.5909 69.7105 19.5909H71.5798C71.7389 19.5909 71.898 19.4318 71.898 19.2727V8.77273Z" fill="#1C203C"/>
</g>
<defs>
<clipPath id="clip0_251_14566">
<rect width="79.5455" height="35" fill="white" transform="translate(0.227539 0.5)"/>
</clipPath>
</defs>
</svg>
