<svg width="80" height="56" viewBox="0 0 80 56" fill="none" xmlns="http://www.w3.org/2000/svg">
<g clip-path="url(#clip0_251_14539)">
<path d="M74.2869 1.25635H5.71324C3.06219 1.25635 0.913086 3.40545 0.913086 6.0565V49.9436C0.913086 52.5947 3.06219 54.7438 5.71324 54.7438H74.2869C76.938 54.7438 79.0871 52.5947 79.0871 49.9436V6.0565C79.0871 3.40545 76.938 1.25635 74.2869 1.25635Z" fill="white"/>
<path d="M78.4015 6.0564C78.4015 3.78409 76.5594 1.94202 74.2871 1.94202H5.71338C3.44108 1.94204 1.59902 3.7841 1.599 6.0564V49.9436L1.60036 50.0498C1.65671 52.273 3.47659 54.058 5.71338 54.058H74.2871C76.5594 54.058 78.4015 52.2159 78.4015 49.9436V6.0564ZM79.773 49.9436C79.773 52.9734 77.3168 55.4294 74.2871 55.4294H5.71338C2.70729 55.4294 0.265983 53.0116 0.228025 50.0145L0.227539 49.9436V6.0564C0.227564 3.02666 2.68364 0.570582 5.71338 0.570557H74.2871C77.3168 0.570557 79.773 3.02664 79.773 6.0564V49.9436Z" fill="#F3F3F3"/>
<path d="M35.545 38.1945H30.249L33.5615 18.9929H38.8572L35.545 38.1945Z" fill="#15195A"/>
<path d="M54.7437 19.4623C53.6991 19.0738 52.0424 18.6448 49.9938 18.6448C44.7638 18.6448 41.081 21.2594 41.0584 24.9973C41.0149 27.7552 43.6952 29.287 45.6998 30.2066C47.7487 31.1463 48.4453 31.7596 48.4453 32.5972C48.4244 33.8836 46.7896 34.4765 45.2648 34.4765C43.1504 34.4765 42.0176 34.1708 40.2958 33.4552L39.5986 33.1484L38.8574 37.4586C40.0996 37.9891 42.388 38.46 44.7638 38.4807C50.3207 38.4807 53.9384 35.9065 53.9812 31.9231C54.0023 29.7373 52.5871 28.0623 49.5358 26.6937C47.6835 25.8151 46.5492 25.2226 46.5492 24.3238C46.571 23.5065 47.5087 22.6695 49.5996 22.6695C51.3212 22.6285 52.5863 23.0165 53.5445 23.4047L54.0234 23.6087L54.7437 19.4623Z" fill="#15195A"/>
<path fill-rule="evenodd" clip-rule="evenodd" d="M64.2233 18.9929H68.3196L72.5921 38.1942H67.6886C67.6886 38.1942 67.2087 35.9881 67.0567 35.3139H60.2571C60.0606 35.8243 59.1457 38.1942 59.1457 38.1942H53.5889L61.4552 20.586C62.0003 19.3399 62.96 18.9929 64.2233 18.9929ZM63.8969 26.0197C63.8969 26.0197 62.2186 30.2889 61.7825 31.392H66.1845C65.9667 30.4321 64.9637 25.8357 64.9637 25.8357L64.5937 24.1813C64.4378 24.6073 64.2124 25.1931 64.0603 25.5882C63.9573 25.8559 63.888 26.0361 63.8969 26.0197Z" fill="#15195A"/>
<path fill-rule="evenodd" clip-rule="evenodd" d="M7.30299 18.9929H15.8235C16.9786 19.0334 17.9157 19.3806 18.2206 20.607L20.0724 29.4294L20.0729 29.4311L20.6396 32.0865L25.8261 18.9929H31.4261L23.1018 38.1742H17.5015L12.7813 21.4897C11.1527 20.597 9.29396 19.879 7.21582 19.3809L7.30299 18.9929Z" fill="#15195A"/>
</g>
<defs>
<clipPath id="clip0_251_14539">
<rect width="79.5455" height="55" fill="white" transform="translate(0.227539 0.5)"/>
</clipPath>
</defs>
</svg>
