<svg width="108" height="24" viewBox="0 0 108 24" fill="none" xmlns="http://www.w3.org/2000/svg">
<g clip-path="url(#clip0_251_14562)">
<path d="M33.7896 3.74788C33.3941 2.27187 32.2327 1.11195 30.7549 0.716838C28.0791 2.14576e-07 17.3445 0 17.3445 0C17.3445 0 6.60994 2.14576e-07 3.93407 0.716838C2.45627 1.11195 1.29494 2.27187 0.89935 3.74788C0.181641 6.42049 0.181641 12 0.181641 12C0.181641 12 0.181641 17.5795 0.89935 20.2521C1.29494 21.7281 2.45627 22.888 3.93407 23.2831C6.60994 24 17.3445 24 17.3445 24C17.3445 24 28.0791 24 30.7549 23.2831C32.2327 22.888 33.3941 21.7281 33.7896 20.2521C34.5074 17.5795 34.5074 12 34.5074 12C34.5074 12 34.5045 6.42049 33.7896 3.74788Z" fill="#FF0000"/>
<path d="M13.9082 17.1425L22.8259 12.0005L13.9082 6.8584V17.1425Z" fill="white"/>
<path d="M41.7545 15.6043L37.9004 1.70215H41.2629L42.6136 8.0041C42.9583 9.55631 43.2097 10.8799 43.3736 11.9749H43.4725C43.5856 11.1904 43.8399 9.87522 44.2327 8.02669L45.6313 1.70215H48.9938L45.0916 15.6043V22.2732H41.7518V15.6043H41.7545Z" fill="#282828"/>
<path d="M50.0059 21.8326C49.3278 21.3754 48.8446 20.6642 48.5564 19.699C48.271 18.7339 48.127 17.4526 48.127 15.8495V13.6679C48.127 12.0508 48.2908 10.7498 48.6186 9.77054C48.9463 8.79125 49.4578 8.07441 50.1528 7.62568C50.848 7.17695 51.7606 6.95117 52.891 6.95117C54.0042 6.95117 54.8943 7.17977 55.5667 7.63697C56.2364 8.09416 56.7281 8.811 57.0389 9.78183C57.3497 10.7555 57.5052 12.0508 57.5052 13.6679V15.8495C57.5052 17.4526 57.3526 18.7395 57.0503 19.7103C56.7479 20.684 56.2562 21.3952 55.578 21.8439C54.8999 22.2927 53.9788 22.5184 52.8174 22.5184C51.6193 22.5212 50.6841 22.2898 50.0059 21.8326ZM53.8092 19.4789C53.9957 18.9879 54.0918 18.1892 54.0918 17.0773V12.3952C54.0918 11.3171 53.9986 10.5269 53.8092 10.0302C53.6199 9.53066 53.2894 9.28231 52.8146 9.28231C52.3569 9.28231 52.0319 9.53066 51.8455 10.0302C51.6561 10.5297 51.5629 11.3171 51.5629 12.3952V17.0773C51.5629 18.1892 51.6532 18.9906 51.8342 19.4789C52.015 19.97 52.3399 20.2155 52.8146 20.2155C53.2894 20.2155 53.6199 19.97 53.8092 19.4789Z" fill="#282828"/>
<path d="M68.4431 22.276H65.7927L65.4989 20.436H65.4254C64.7048 21.8245 63.6254 22.5187 62.1844 22.5187C61.1869 22.5187 60.4495 22.1913 59.9748 21.5395C59.5001 20.8846 59.2627 19.8631 59.2627 18.4746V7.24501H62.6507V18.2769C62.6507 18.9487 62.7241 19.4256 62.871 19.7107C63.018 19.9957 63.2638 20.1396 63.6085 20.1396C63.9024 20.1396 64.1849 20.0493 64.4562 19.8687C64.7275 19.688 64.9253 19.4594 65.058 19.1829V7.24219H68.4431V22.276Z" fill="#282828"/>
<path d="M77.6469 4.42519H74.2844V22.2755H70.9699V4.42519H67.6074V1.70459H77.6469V4.42519Z" fill="#282828"/>
<path d="M85.8172 22.276H83.1668L82.8729 20.436H82.7995C82.079 21.8245 80.9996 22.5187 79.5584 22.5187C78.561 22.5187 77.8235 22.1913 77.3488 21.5395C76.8741 20.8846 76.6367 19.8631 76.6367 18.4746V7.24501H80.0247V18.2769C80.0247 18.9487 80.0981 19.4256 80.2451 19.7107C80.392 19.9957 80.6378 20.1396 80.9826 20.1396C81.2764 20.1396 81.559 20.0493 81.8303 19.8687C82.1015 19.688 82.2993 19.4594 82.4321 19.1829V7.24219H85.8172V22.276Z" fill="#282828"/>
<path d="M97.0305 9.64652C96.8242 8.69827 96.4935 8.01247 96.0359 7.58632C95.5782 7.16017 94.948 6.9485 94.1455 6.9485C93.5239 6.9485 92.9418 7.12348 92.4021 7.47625C91.8624 7.82903 91.4442 8.28905 91.1503 8.86195H91.125V0.942871H87.8613V22.273H90.6587L91.0034 20.8507H91.0769C91.3397 21.3586 91.7324 21.7565 92.2552 22.0529C92.7779 22.3465 93.36 22.4932 93.9986 22.4932C95.143 22.4932 95.9879 21.9655 96.5276 20.9127C97.0672 19.8572 97.3384 18.2119 97.3384 15.9711V13.592C97.3384 11.9127 97.2339 10.5948 97.0305 9.64652ZM93.9251 15.7791C93.9251 16.8741 93.8799 17.7321 93.7894 18.353C93.6991 18.9739 93.5493 19.417 93.3346 19.6766C93.1226 19.939 92.8344 20.0689 92.4755 20.0689C92.1958 20.0689 91.9387 20.0039 91.7013 19.8713C91.464 19.7415 91.2719 19.544 91.125 19.2843V10.7528C91.2379 10.3436 91.4358 10.0106 91.7155 9.74812C91.9924 9.48566 92.2976 9.35583 92.6225 9.35583C92.9673 9.35583 93.2328 9.4913 93.4194 9.75941C93.6086 10.0303 93.7386 10.4819 93.8121 11.1197C93.8855 11.7575 93.9223 12.6634 93.9223 13.8403V15.7791H93.9251Z" fill="#282828"/>
<path d="M102.144 16.6456C102.144 17.6108 102.172 18.3333 102.228 18.8159C102.285 19.2985 102.404 19.6485 102.584 19.8715C102.765 20.0915 103.042 20.2016 103.418 20.2016C103.924 20.2016 104.274 20.0041 104.461 19.6118C104.65 19.2195 104.752 18.5648 104.769 17.6504L107.69 17.8225C107.707 17.9523 107.716 18.1329 107.716 18.3615C107.716 19.75 107.334 20.7886 106.574 21.4744C105.814 22.1602 104.738 22.5045 103.347 22.5045C101.677 22.5045 100.508 21.9824 99.8379 20.9354C99.1654 19.8884 98.832 18.2713 98.832 16.0811V13.4565C98.832 11.2016 99.1796 9.55345 99.8747 8.51489C100.57 7.47632 101.759 6.95703 103.446 6.95703C104.608 6.95703 105.5 7.1687 106.122 7.59485C106.744 8.021 107.182 8.68139 107.436 9.58168C107.69 10.482 107.817 11.7237 107.817 13.3097V15.8836H102.144V16.6456ZM102.573 9.56193C102.401 9.77358 102.288 10.1207 102.228 10.6033C102.172 11.0859 102.144 11.8169 102.144 12.799V13.8771H104.622V12.799C104.622 11.8338 104.588 11.1028 104.523 10.6033C104.458 10.1038 104.339 9.75383 104.167 9.54781C103.994 9.34462 103.729 9.24019 103.37 9.24019C103.008 9.24301 102.743 9.35026 102.573 9.56193Z" fill="#282828"/>
</g>
<defs>
<clipPath id="clip0_251_14562">
<rect width="107.636" height="24" fill="white" transform="translate(0.181641)"/>
</clipPath>
</defs>
</svg>
